<svg xmlns="http://www.w3.org/2000/svg" id="b799bcff-23db-4fd7-a91e-7b8a88e51508" data-name="Layer 1" width="241.6934" height="250.7413" viewBox="0 0 241.6934 250.7413"><path d="M150.0371,180.9082a5.0352,5.0352,0,1,0,5.0352,5.0352A5.0408,5.0408,0,0,0,150.0371,180.9082Zm0,8.0566a3.0215,3.0215,0,1,1,3.0215-3.0214A3.0249,3.0249,0,0,1,150.0371,188.9648Z" transform="translate(-0.9932 -0.66)"></path><path d="M218.5176,143.6465a5.0352,5.0352,0,1,0-5.0342-5.0352A5.0409,5.0409,0,0,0,218.5176,143.6465Zm0-8.0567a3.0215,3.0215,0,1,1-3.02,3.0215A3.025,3.025,0,0,1,218.5176,135.59Z" transform="translate(-0.9932 -0.66)"></path><path d="M84.5781,121.4912a5.0352,5.0352,0,1,0,5.0352-5.0351A5.04,5.04,0,0,0,84.5781,121.4912Zm8.0567,0a3.0215,3.0215,0,1,1-3.0215-3.0215A3.0249,3.0249,0,0,1,92.6348,121.4912Z" transform="translate(-0.9932 -0.66)"></path><path d="M115.7969,159.76a5.0352,5.0352,0,1,0,5.0351-5.0352A5.0409,5.0409,0,0,0,115.7969,159.76Zm8.0566,0a3.0215,3.0215,0,1,1-3.0215-3.0215A3.0249,3.0249,0,0,1,123.8535,159.76Z" transform="translate(-0.9932 -0.66)"></path><path d="M53.36,175.8721a5.0349,5.0349,0,1,0,5.0346-5.0352A5.04,5.04,0,0,0,53.36,175.8721Zm8.0561,0a3.0213,3.0213,0,1,1-3.0215-3.0215A3.025,3.025,0,0,1,61.416,175.8721Z" transform="translate(-0.9932 -0.66)"></path><path d="M104.7188,61.0674a5.0352,5.0352,0,1,0-5.0352,5.0351A5.0409,5.0409,0,0,0,104.7188,61.0674Zm-5.0352,3.0215a3.0215,3.0215,0,1,1,3.0215-3.0215A3.025,3.025,0,0,1,99.6836,64.0889Z" transform="translate(-0.9932 -0.66)"></path><path d="M145.002,71.1387a5.0352,5.0352,0,1,0,5.0351-5.0352A5.0408,5.0408,0,0,0,145.002,71.1387Zm8.0566,0a3.0215,3.0215,0,1,1-3.0215-3.0215A3.025,3.025,0,0,1,153.0586,71.1387Z" transform="translate(-0.9932 -0.66)"></path><path d="M104.7212,190.9785a5.0352,5.0352,0,1,0-5.0352-5.0351A5.04,5.04,0,0,0,104.7212,190.9785Zm0-8.0566a3.0215,3.0215,0,1,1-3.0215,3.0215A3.0248,3.0248,0,0,1,104.7212,182.9219Z" transform="translate(-0.9932 -0.66)"></path><path d="M240.6729,130.5547A118.8331,118.8331,0,1,1,99.644,13.8093c1.7479,2.5231,5.0614,4.5936,9.093,6.0657a48.6729,48.6729,0,0,0,17.732,2.6082v0l.0159,0,.0141,0v0A52.8248,52.8248,0,0,0,144.49,19.35a24.261,24.261,0,0,0,6.162-3.2472,6.5333,6.5333,0,0,0,2.844-4.18l-.9866-.1038h.0006l.986.1038c.003-.0345.005-.0691.005-.1038a5.5679,5.5679,0,0,0-1.709-3.5135A16.9732,16.9732,0,0,0,146.748,4.73C142.174,2.4753,135.007.66,124.485.66c-6.378,0-12.093.6854-16.561,2.357-4.482,1.6767-7.815,4.3916-9.1806,8.4892a.9806.9806,0,0,0-.0318.4316A120.8485,120.8485,0,1,0,242.6865,130.5547ZM108.619,4.874c4.15-1.5526,9.595-2.2313,15.866-2.2313,10.31,0,17.156,1.7808,21.386,3.866a15.0356,15.0356,0,0,1,4.458,3.1358,3.8744,3.8744,0,0,1,1.185,2.125,4.7558,4.7558,0,0,1-2.076,2.7655,22.3219,22.3219,0,0,1-5.649,2.9607,50.8615,50.8615,0,0,1-17.32,3.005l-.031.0005.031.9909v.0158l-.031-1.0067a46.7146,46.7146,0,0,1-17.021-2.4886,18.6147,18.6147,0,0,1-7.56-4.6018A119.0987,119.0987,0,0,1,121.84,11.7217V9.708a121.1091,121.1091,0,0,0-20.9706,1.8255C102.1036,8.5111,104.7387,6.3253,108.619,4.874Z" transform="translate(-0.9932 -0.66)"></path></svg>