<svg xmlns="http://www.w3.org/2000/svg" width="166" height="43" viewBox="0 0 166 43" fill="none"><path d="M0.00976562 31.7264V0.926436H4.01377V29.3064H19.8978V31.7264H0.00976562Z" fill="#888973"></path><path d="M0.00976562 31.7264V0.926436H4.01377V29.3064H19.8978V31.7264H0.00976562Z" fill="#888973"></path><path d="M26.1265 9.72644V31.7264H29.8665V9.72644H26.1265ZM25.5985 2.77444C25.5985 3.41977 25.8332 3.9771 26.3025 4.44644C26.7718 4.91577 27.3292 5.15044 27.9745 5.15044C28.6199 5.15044 29.1772 4.91577 29.6465 4.44644C30.1159 3.9771 30.3505 3.41977 30.3505 2.77444C30.3505 2.1291 30.1159 1.57177 29.6465 1.10244C29.1772 0.633104 28.6199 0.398438 27.9745 0.398438C27.3292 0.398438 26.7718 0.633104 26.3025 1.10244C25.8332 1.57177 25.5985 2.1291 25.5985 2.77444Z" fill="#888973"></path><path d="M26.1265 9.72644V31.7264H29.8665V9.72644H26.1265ZM25.5985 2.77444C25.5985 3.41977 25.8332 3.9771 26.3025 4.44644C26.7718 4.91577 27.3292 5.15044 27.9745 5.15044C28.6199 5.15044 29.1772 4.91577 29.6465 4.44644C30.1159 3.9771 30.3505 3.41977 30.3505 2.77444C30.3505 2.1291 30.1159 1.57177 29.6465 1.10244C29.1772 0.633104 28.6199 0.398438 27.9745 0.398438C27.3292 0.398438 26.7718 0.633104 26.3025 1.10244C25.8332 1.57177 25.5985 2.1291 25.5985 2.77444Z" fill="#888973"></path><path d="M36.0537 9.72644V11.4864H39.8817V31.7264H43.6217V11.4864H48.9457V9.72644H43.6217V6.03044C43.6217 5.67844 43.6363 5.26777 43.6657 4.79844C43.695 4.29977 43.783 3.84511 43.9297 3.43444C44.0763 2.99444 44.2963 2.62777 44.5897 2.33444C44.9123 2.0411 45.3523 1.89444 45.9097 1.89444C46.6137 1.89444 47.1857 2.18777 47.6257 2.77444C48.095 3.3611 48.4763 3.96244 48.7697 4.57844L50.7057 2.51044C50.0017 1.80644 49.2683 1.27844 48.5057 0.926436C47.7723 0.574437 46.9363 0.398438 45.9977 0.398438C45.235 0.398438 44.487 0.530438 43.7537 0.794438C43.0203 1.05844 42.3603 1.4691 41.7737 2.02644C41.2163 2.55444 40.7617 3.24377 40.4097 4.09444C40.0577 4.9451 39.8817 5.94244 39.8817 7.08644V9.72644H36.0537Z" fill="#888973"></path><path d="M36.0537 9.72644V11.4864H39.8817V31.7264H43.6217V11.4864H48.9457V9.72644H43.6217V6.03044C43.6217 5.67844 43.6363 5.26777 43.6657 4.79844C43.695 4.29977 43.783 3.84511 43.9297 3.43444C44.0763 2.99444 44.2963 2.62777 44.5897 2.33444C44.9123 2.0411 45.3523 1.89444 45.9097 1.89444C46.6137 1.89444 47.1857 2.18777 47.6257 2.77444C48.095 3.3611 48.4763 3.96244 48.7697 4.57844L50.7057 2.51044C50.0017 1.80644 49.2683 1.27844 48.5057 0.926436C47.7723 0.574437 46.9363 0.398438 45.9977 0.398438C45.235 0.398438 44.487 0.530438 43.7537 0.794438C43.0203 1.05844 42.3603 1.4691 41.7737 2.02644C41.2163 2.55444 40.7617 3.24377 40.4097 4.09444C40.0577 4.9451 39.8817 5.94244 39.8817 7.08644V9.72644H36.0537Z" fill="#888973"></path><path d="M73.774 21.6944V20.7704C73.774 18.8051 73.4954 17.1038 72.938 15.6664C72.3807 14.2291 71.618 13.0411 70.65 12.1024C69.7114 11.1638 68.6114 10.4598 67.3501 9.99044C66.0887 9.5211 64.754 9.28644 63.346 9.28644C61.85 9.28644 60.4714 9.55044 59.21 10.0784C57.9487 10.5771 56.8487 11.3251 55.91 12.3224C54.9714 13.2904 54.238 14.4784 53.71 15.8864C53.182 17.2651 52.918 18.8344 52.918 20.5944C52.918 22.0611 53.1381 23.4984 53.578 24.9064C54.0474 26.2851 54.7367 27.5318 55.646 28.6464C56.5847 29.7318 57.758 30.6118 59.166 31.2864C60.6034 31.9318 62.2901 32.2544 64.2261 32.2544C66.1034 32.2544 67.834 31.9318 69.418 31.2864C71.002 30.6118 72.3807 29.6584 73.554 28.4264L72.146 27.0184C71.5301 27.5464 70.9434 28.0304 70.386 28.4704C69.858 28.9104 69.3154 29.2771 68.758 29.5704C68.2007 29.8638 67.614 30.0984 66.998 30.2744C66.4114 30.4211 65.7514 30.4944 65.0181 30.4944C64.1967 30.4944 63.3167 30.3771 62.3781 30.1424C61.4687 29.8784 60.618 29.4238 59.826 28.7784C59.034 28.1331 58.374 27.2384 57.846 26.0944C57.318 24.9504 57.054 23.4838 57.054 21.6944H73.774ZM57.054 19.9344C57.054 18.7611 57.1714 17.6318 57.4061 16.5464C57.6701 15.4318 58.0514 14.4491 58.55 13.5984C59.078 12.7478 59.738 12.0731 60.53 11.5744C61.322 11.0464 62.2607 10.7824 63.346 10.7824C65.4287 10.7824 67.0421 11.6038 68.1861 13.2464C69.3594 14.8598 69.946 17.0891 69.946 19.9344H57.054Z" fill="#888973"></path><path d="M73.774 21.6944V20.7704C73.774 18.8051 73.4954 17.1038 72.938 15.6664C72.3807 14.2291 71.618 13.0411 70.65 12.1024C69.7114 11.1638 68.6114 10.4598 67.3501 9.99044C66.0887 9.5211 64.754 9.28644 63.346 9.28644C61.85 9.28644 60.4714 9.55044 59.21 10.0784C57.9487 10.5771 56.8487 11.3251 55.91 12.3224C54.9714 13.2904 54.238 14.4784 53.71 15.8864C53.182 17.2651 52.918 18.8344 52.918 20.5944C52.918 22.0611 53.1381 23.4984 53.578 24.9064C54.0474 26.2851 54.7367 27.5318 55.646 28.6464C56.5847 29.7318 57.758 30.6118 59.166 31.2864C60.6034 31.9318 62.2901 32.2544 64.2261 32.2544C66.1034 32.2544 67.834 31.9318 69.418 31.2864C71.002 30.6118 72.3807 29.6584 73.554 28.4264L72.146 27.0184C71.5301 27.5464 70.9434 28.0304 70.386 28.4704C69.858 28.9104 69.3154 29.2771 68.758 29.5704C68.2007 29.8638 67.614 30.0984 66.998 30.2744C66.4114 30.4211 65.7514 30.4944 65.0181 30.4944C64.1967 30.4944 63.3167 30.3771 62.3781 30.1424C61.4687 29.8784 60.618 29.4238 59.826 28.7784C59.034 28.1331 58.374 27.2384 57.846 26.0944C57.318 24.9504 57.054 23.4838 57.054 21.6944H73.774ZM57.054 19.9344C57.054 18.7611 57.1714 17.6318 57.4061 16.5464C57.6701 15.4318 58.0514 14.4491 58.55 13.5984C59.078 12.7478 59.738 12.0731 60.53 11.5744C61.322 11.0464 62.2607 10.7824 63.346 10.7824C65.4287 10.7824 67.0421 11.6038 68.1861 13.2464C69.3594 14.8598 69.946 17.0891 69.946 19.9344H57.054Z" fill="#888973"></path><path d="M79.5037 0.926436H83.2437V13.3344H83.4197C83.713 12.5718 84.0943 11.9411 84.5637 11.4424C85.0623 10.9144 85.6197 10.4891 86.2357 10.1664C86.8517 9.84377 87.497 9.6091 88.1717 9.46244C88.8757 9.31577 89.5797 9.24244 90.2837 9.24244C91.7503 9.24244 93.0997 9.5211 94.3317 10.0784C95.5637 10.6064 96.6197 11.3691 97.4997 12.3664C98.409 13.3638 99.113 14.5664 99.6117 15.9744C100.11 17.3824 100.36 18.9518 100.36 20.6824C100.36 22.4424 100.11 24.0411 99.6117 25.4784C99.113 26.8864 98.409 28.1038 97.4997 29.1304C96.6197 30.1278 95.5637 30.9051 94.3317 31.4624C93.0997 31.9904 91.7503 32.2544 90.2837 32.2544C86.793 32.2544 84.505 30.8904 83.4197 28.1624H83.2437V31.7264H79.5037V0.926436ZM83.2437 22.9264C83.2437 23.8944 83.3903 24.8184 83.6837 25.6984C84.0063 26.5491 84.4463 27.2971 85.0037 27.9424C85.561 28.5584 86.2063 29.0571 86.9397 29.4384C87.7023 29.7904 88.509 29.9664 89.3597 29.9664C90.269 29.9664 91.1343 29.8051 91.9557 29.4824C92.8063 29.1304 93.5397 28.5878 94.1557 27.8544C94.7717 27.1211 95.2557 26.1678 95.6077 24.9944C95.989 23.8211 96.1797 22.4131 96.1797 20.7704C96.1797 19.0984 95.989 17.6758 95.6077 16.5024C95.2557 15.3291 94.757 14.3758 94.1117 13.6424C93.4957 12.8798 92.777 12.3371 91.9557 12.0144C91.1343 11.6624 90.269 11.4864 89.3597 11.4864C88.5383 11.4864 87.761 11.6624 87.0277 12.0144C86.2943 12.3371 85.649 12.8358 85.0917 13.5104C84.5343 14.1558 84.0797 14.9478 83.7277 15.8864C83.405 16.8251 83.2437 17.8958 83.2437 19.0984V22.9264Z" fill="#888973"></path><path d="M79.5037 0.926436H83.2437V13.3344H83.4197C83.713 12.5718 84.0943 11.9411 84.5637 11.4424C85.0623 10.9144 85.6197 10.4891 86.2357 10.1664C86.8517 9.84377 87.497 9.6091 88.1717 9.46244C88.8757 9.31577 89.5797 9.24244 90.2837 9.24244C91.7503 9.24244 93.0997 9.5211 94.3317 10.0784C95.5637 10.6064 96.6197 11.3691 97.4997 12.3664C98.409 13.3638 99.113 14.5664 99.6117 15.9744C100.11 17.3824 100.36 18.9518 100.36 20.6824C100.36 22.4424 100.11 24.0411 99.6117 25.4784C99.113 26.8864 98.409 28.1038 97.4997 29.1304C96.6197 30.1278 95.5637 30.9051 94.3317 31.4624C93.0997 31.9904 91.7503 32.2544 90.2837 32.2544C86.793 32.2544 84.505 30.8904 83.4197 28.1624H83.2437V31.7264H79.5037V0.926436ZM83.2437 22.9264C83.2437 23.8944 83.3903 24.8184 83.6837 25.6984C84.0063 26.5491 84.4463 27.2971 85.0037 27.9424C85.561 28.5584 86.2063 29.0571 86.9397 29.4384C87.7023 29.7904 88.509 29.9664 89.3597 29.9664C90.269 29.9664 91.1343 29.8051 91.9557 29.4824C92.8063 29.1304 93.5397 28.5878 94.1557 27.8544C94.7717 27.1211 95.2557 26.1678 95.6077 24.9944C95.989 23.8211 96.1797 22.4131 96.1797 20.7704C96.1797 19.0984 95.989 17.6758 95.6077 16.5024C95.2557 15.3291 94.757 14.3758 94.1117 13.6424C93.4957 12.8798 92.777 12.3371 91.9557 12.0144C91.1343 11.6624 90.269 11.4864 89.3597 11.4864C88.5383 11.4864 87.761 11.6624 87.0277 12.0144C86.2943 12.3371 85.649 12.8358 85.0917 13.5104C84.5343 14.1558 84.0797 14.9478 83.7277 15.8864C83.405 16.8251 83.2437 17.8958 83.2437 19.0984V22.9264Z" fill="#888973"></path><path d="M110.678 0.926436H106.938V31.7264H110.678V0.926436Z" fill="#888973"></path><path d="M110.678 0.926436H106.938V31.7264H110.678V0.926436Z" fill="#888973"></path><path d="M140.077 20.7704C140.077 22.2958 139.813 23.7624 139.285 25.1704C138.757 26.5491 137.995 27.7664 136.997 28.8224C136.029 29.8784 134.841 30.7144 133.433 31.3304C132.055 31.9464 130.5 32.2544 128.769 32.2544C127.009 32.2544 125.411 31.9464 123.973 31.3304C122.565 30.6851 121.363 29.8344 120.365 28.7784C119.397 27.7224 118.635 26.5051 118.077 25.1264C117.549 23.7184 117.285 22.2664 117.285 20.7704C117.285 19.2451 117.549 17.7931 118.077 16.4144C118.635 15.0064 119.397 13.7744 120.365 12.7184C121.363 11.6624 122.565 10.8264 123.973 10.2104C125.411 9.5651 127.009 9.24244 128.769 9.24244C130.5 9.24244 132.055 9.5651 133.433 10.2104C134.841 10.8264 136.029 11.6624 136.997 12.7184C137.995 13.7744 138.757 15.0064 139.285 16.4144C139.813 17.7931 140.077 19.2451 140.077 20.7704ZM135.897 20.7704C135.897 18.7171 135.677 17.0598 135.237 15.7984C134.797 14.5078 134.225 13.5104 133.521 12.8064C132.817 12.1024 132.04 11.6331 131.189 11.3984C130.339 11.1344 129.517 11.0024 128.725 11.0024C127.933 11.0024 127.112 11.1344 126.261 11.3984C125.411 11.6331 124.619 12.1024 123.885 12.8064C123.181 13.5104 122.595 14.5078 122.125 15.7984C121.685 17.0598 121.465 18.7171 121.465 20.7704C121.465 22.7944 121.685 24.4518 122.125 25.7424C122.595 27.0038 123.181 27.9864 123.885 28.6904C124.619 29.3944 125.411 29.8784 126.261 30.1424C127.112 30.3771 127.933 30.4944 128.725 30.4944C129.517 30.4944 130.339 30.3771 131.189 30.1424C132.04 29.8784 132.817 29.3944 133.521 28.6904C134.225 27.9864 134.797 27.0038 135.237 25.7424C135.677 24.4518 135.897 22.7944 135.897 20.7704Z" fill="#888973"></path><path d="M140.077 20.7704C140.077 22.2958 139.813 23.7624 139.285 25.1704C138.757 26.5491 137.995 27.7664 136.997 28.8224C136.029 29.8784 134.841 30.7144 133.433 31.3304C132.055 31.9464 130.5 32.2544 128.769 32.2544C127.009 32.2544 125.411 31.9464 123.973 31.3304C122.565 30.6851 121.363 29.8344 120.365 28.7784C119.397 27.7224 118.635 26.5051 118.077 25.1264C117.549 23.7184 117.285 22.2664 117.285 20.7704C117.285 19.2451 117.549 17.7931 118.077 16.4144C118.635 15.0064 119.397 13.7744 120.365 12.7184C121.363 11.6624 122.565 10.8264 123.973 10.2104C125.411 9.5651 127.009 9.24244 128.769 9.24244C130.5 9.24244 132.055 9.5651 133.433 10.2104C134.841 10.8264 136.029 11.6624 136.997 12.7184C137.995 13.7744 138.757 15.0064 139.285 16.4144C139.813 17.7931 140.077 19.2451 140.077 20.7704ZM135.897 20.7704C135.897 18.7171 135.677 17.0598 135.237 15.7984C134.797 14.5078 134.225 13.5104 133.521 12.8064C132.817 12.1024 132.04 11.6331 131.189 11.3984C130.339 11.1344 129.517 11.0024 128.725 11.0024C127.933 11.0024 127.112 11.1344 126.261 11.3984C125.411 11.6331 124.619 12.1024 123.885 12.8064C123.181 13.5104 122.595 14.5078 122.125 15.7984C121.685 17.0598 121.465 18.7171 121.465 20.7704C121.465 22.7944 121.685 24.4518 122.125 25.7424C122.595 27.0038 123.181 27.9864 123.885 28.6904C124.619 29.3944 125.411 29.8784 126.261 30.1424C127.112 30.3771 127.933 30.4944 128.725 30.4944C129.517 30.4944 130.339 30.3771 131.189 30.1424C132.04 29.8784 132.817 29.3944 133.521 28.6904C134.225 27.9864 134.797 27.0038 135.237 25.7424C135.677 24.4518 135.897 22.7944 135.897 20.7704Z" fill="#888973"></path><path d="M161.512 33.5744C161.512 34.9238 161.351 36.0678 161.028 37.0064C160.706 37.9451 160.251 38.7078 159.664 39.2944C159.107 39.8811 158.432 40.3064 157.64 40.5704C156.878 40.8344 156.056 40.9664 155.176 40.9664C153.622 40.9664 152.36 40.5704 151.392 39.7784C150.454 38.9864 149.588 37.9304 148.796 36.6104L146.376 38.8104C146.582 39.0744 146.904 39.4118 147.344 39.8224C147.784 40.2624 148.342 40.6878 149.016 41.0984C149.691 41.5384 150.498 41.9051 151.436 42.1984C152.375 42.5211 153.446 42.6824 154.648 42.6824C156.878 42.6824 158.682 42.3598 160.06 41.7144C161.439 41.0984 162.51 40.2624 163.272 39.2064C164.035 38.1504 164.548 36.9331 164.812 35.5544C165.106 34.2051 165.252 32.7971 165.252 31.3304V9.72644H161.512V13.1584H161.336C160.984 11.9264 160.222 10.9731 159.048 10.2984C157.904 9.59444 156.394 9.24244 154.516 9.24244C153.02 9.24244 151.656 9.5211 150.424 10.0784C149.192 10.6064 148.136 11.3691 147.256 12.3664C146.376 13.3638 145.687 14.5664 145.188 15.9744C144.719 17.3824 144.484 18.9518 144.484 20.6824C144.484 22.4424 144.719 24.0411 145.188 25.4784C145.687 26.8864 146.376 28.1038 147.256 29.1304C148.136 30.1278 149.178 30.9051 150.38 31.4624C151.612 31.9904 152.976 32.2544 154.472 32.2544C156.115 32.2544 157.538 31.9318 158.74 31.2864C159.972 30.6411 160.838 29.6144 161.336 28.2064H161.512V33.5744ZM161.512 22.3544C161.512 23.5864 161.336 24.6718 160.984 25.6104C160.662 26.5491 160.222 27.3411 159.664 27.9864C159.107 28.6318 158.462 29.1304 157.728 29.4824C156.995 29.8051 156.232 29.9664 155.44 29.9664C154.736 29.9664 153.974 29.8491 153.152 29.6144C152.36 29.3504 151.612 28.8811 150.908 28.2064C150.234 27.5318 149.662 26.5784 149.192 25.3464C148.752 24.1144 148.532 22.5304 148.532 20.5944C148.532 18.5411 148.811 16.9131 149.368 15.7104C149.926 14.4784 150.571 13.5398 151.304 12.8944C152.067 12.2491 152.83 11.8384 153.592 11.6624C154.384 11.4571 155 11.3544 155.44 11.3544C156.408 11.3544 157.274 11.5744 158.036 12.0144C158.799 12.4251 159.43 12.9971 159.928 13.7304C160.456 14.4344 160.852 15.2558 161.116 16.1944C161.38 17.1331 161.512 18.1011 161.512 19.0984V22.3544Z" fill="#888973"></path><path d="M161.512 33.5744C161.512 34.9238 161.351 36.0678 161.028 37.0064C160.706 37.9451 160.251 38.7078 159.664 39.2944C159.107 39.8811 158.432 40.3064 157.64 40.5704C156.878 40.8344 156.056 40.9664 155.176 40.9664C153.622 40.9664 152.36 40.5704 151.392 39.7784C150.454 38.9864 149.588 37.9304 148.796 36.6104L146.376 38.8104C146.582 39.0744 146.904 39.4118 147.344 39.8224C147.784 40.2624 148.342 40.6878 149.016 41.0984C149.691 41.5384 150.498 41.9051 151.436 42.1984C152.375 42.5211 153.446 42.6824 154.648 42.6824C156.878 42.6824 158.682 42.3598 160.06 41.7144C161.439 41.0984 162.51 40.2624 163.272 39.2064C164.035 38.1504 164.548 36.9331 164.812 35.5544C165.106 34.2051 165.252 32.7971 165.252 31.3304V9.72644H161.512V13.1584H161.336C160.984 11.9264 160.222 10.9731 159.048 10.2984C157.904 9.59444 156.394 9.24244 154.516 9.24244C153.02 9.24244 151.656 9.5211 150.424 10.0784C149.192 10.6064 148.136 11.3691 147.256 12.3664C146.376 13.3638 145.687 14.5664 145.188 15.9744C144.719 17.3824 144.484 18.9518 144.484 20.6824C144.484 22.4424 144.719 24.0411 145.188 25.4784C145.687 26.8864 146.376 28.1038 147.256 29.1304C148.136 30.1278 149.178 30.9051 150.38 31.4624C151.612 31.9904 152.976 32.2544 154.472 32.2544C156.115 32.2544 157.538 31.9318 158.74 31.2864C159.972 30.6411 160.838 29.6144 161.336 28.2064H161.512V33.5744ZM161.512 22.3544C161.512 23.5864 161.336 24.6718 160.984 25.6104C160.662 26.5491 160.222 27.3411 159.664 27.9864C159.107 28.6318 158.462 29.1304 157.728 29.4824C156.995 29.8051 156.232 29.9664 155.44 29.9664C154.736 29.9664 153.974 29.8491 153.152 29.6144C152.36 29.3504 151.612 28.8811 150.908 28.2064C150.234 27.5318 149.662 26.5784 149.192 25.3464C148.752 24.1144 148.532 22.5304 148.532 20.5944C148.532 18.5411 148.811 16.9131 149.368 15.7104C149.926 14.4784 150.571 13.5398 151.304 12.8944C152.067 12.2491 152.83 11.8384 153.592 11.6624C154.384 11.4571 155 11.3544 155.44 11.3544C156.408 11.3544 157.274 11.5744 158.036 12.0144C158.799 12.4251 159.43 12.9971 159.928 13.7304C160.456 14.4344 160.852 15.2558 161.116 16.1944C161.38 17.1331 161.512 18.1011 161.512 19.0984V22.3544Z" fill="#888973"></path></svg>