<svg xmlns="http://www.w3.org/2000/svg" id="b84a1456-ca74-4e76-83de-4defcde00aa5" data-name="Layer 1" width="250" height="214" viewBox="0 0 250 214"><defs><style>.abdb93fa-2003-4e27-a0c7-64b0313cb801{fill-rule:evenodd;}</style></defs><path class="abdb93fa-2003-4e27-a0c7-64b0313cb801" d="M248.03,0H0V153H116.867v59H94v2h47v-2H118.836V153H250V0ZM117.852,50.1414a.9847.9847,0,0,0-.985.9844v37.73c-2.52-1.3617-4.38-3.8318-5.667-7.2721-1.542-4.1211-2.216-9.5283-2.216-15.755,0-10.2379,1.769-17.0363,3.839-21.2366a14.9336,14.9336,0,0,1,3.114-4.4266,3.8743,3.8743,0,0,1,2.112-1.18,4.74,4.74,0,0,1,2.744,2.0641,22.14,22.14,0,0,1,2.94,5.61,50.49,50.49,0,0,1,2.984,17.1985c0,.01,0,.02.001.03a46.4157,46.4157,0,0,1-2.471,16.9018c-1.458,3.9927-3.384,6.8241-5.411,8.17V51.1258A.9845.9845,0,0,0,117.852,50.1414ZM248.03,151.03H118.836V91.2108c3.07-1.4089,5.564-5.1006,7.26-9.745a48.36,48.36,0,0,0,2.59-17.6226,52.4752,52.4752,0,0,0-3.111-17.88,24.0653,24.0653,0,0,0-3.225-6.1186,6.483,6.483,0,0,0-4.15-2.8238.9729.9729,0,0,0-.103-.0054,5.5309,5.5309,0,0,0-3.489,1.6973,16.8609,16.8609,0,0,0-3.551,5.0086c-2.239,4.5423-4.041,11.6582-4.041,22.1071,0,6.333.68,12.008,2.34,16.4448,1.536,4.1068,3.95,7.2416,7.511,8.7671v59.99H1.97V1.97H248.03Z"></path></svg>