<svg xmlns="http://www.w3.org/2000/svg" width="74" height="44" viewBox="0 0 74 44" fill="none"><path d="M16.4215 19.4825C16.3379 18.5079 16.2405 17.5638 16.0817 16.6365C16.0149 16.1742 15.9341 15.7147 15.8367 15.2608C15.7392 14.8068 15.6557 14.3585 15.5387 13.9157C15.302 13.0329 15.0541 12.1641 14.7478 11.3203C14.6643 11.1114 14.5919 10.8998 14.5139 10.6909C14.4359 10.482 14.3412 10.2787 14.2577 10.0699C14.1741 9.86102 14.0795 9.66051 13.9792 9.45722L13.8427 9.15368L13.6896 8.8557C13.3003 8.05165 12.8603 7.27312 12.3724 6.52481C12.1384 6.13772 11.8683 5.78127 11.6149 5.41089C11.4896 5.22152 11.3364 5.05443 11.2055 4.85393C11.0746 4.65342 10.9438 4.48076 10.7934 4.29696C9.64325 2.87393 8.33996 1.53443 6.95312 0.119747L7.02553 0C7.43212 0.253418 7.86098 0.498481 8.24806 0.763038L8.84123 1.17519C9.04173 1.30886 9.23667 1.45367 9.42326 1.60127L9.98022 2.04962C10.1696 2.19722 10.3422 2.3643 10.5372 2.52304C10.9048 2.83494 11.2445 3.17747 11.5871 3.51722C12.2633 4.21027 12.8844 4.95516 13.4445 5.74506C14.0122 6.52742 14.5125 7.35656 14.94 8.22355C15.7884 9.96157 16.3579 11.8223 16.6276 13.7375C16.919 15.6483 16.8926 17.5942 16.5496 19.4965L16.4215 19.4825Z" fill="#888973"></path><path d="M16.4215 19.4825C16.3379 18.5079 16.2405 17.5638 16.0817 16.6365C16.0149 16.1742 15.9341 15.7147 15.8367 15.2608C15.7392 14.8068 15.6557 14.3585 15.5387 13.9157C15.302 13.0329 15.0541 12.1641 14.7478 11.3203C14.6643 11.1114 14.5919 10.8998 14.5139 10.6909C14.4359 10.482 14.3412 10.2787 14.2577 10.0699C14.1741 9.86102 14.0795 9.66051 13.9792 9.45722L13.8427 9.15368L13.6896 8.8557C13.3003 8.05165 12.8603 7.27312 12.3724 6.52481C12.1384 6.13772 11.8683 5.78127 11.6149 5.41089C11.4896 5.22152 11.3364 5.05443 11.2055 4.85393C11.0746 4.65342 10.9438 4.48076 10.7934 4.29696C9.64325 2.87393 8.33996 1.53443 6.95312 0.119747L7.02553 0C7.43212 0.253418 7.86098 0.498481 8.24806 0.763038L8.84123 1.17519C9.04173 1.30886 9.23667 1.45367 9.42326 1.60127L9.98022 2.04962C10.1696 2.19722 10.3422 2.3643 10.5372 2.52304C10.9048 2.83494 11.2445 3.17747 11.5871 3.51722C12.2633 4.21027 12.8844 4.95516 13.4445 5.74506C14.0122 6.52742 14.5125 7.35656 14.94 8.22355C15.7884 9.96157 16.3579 11.8223 16.6276 13.7375C16.919 15.6483 16.8926 17.5942 16.5496 19.4965L16.4215 19.4825Z" fill="#888973"></path><path d="M16.7066 19.4825C16.7901 18.5079 16.8876 17.5638 17.0463 16.6365C17.1132 16.1742 17.1939 15.7147 17.2914 15.2608C17.3889 14.8068 17.4724 14.3585 17.5894 13.9157C17.8261 13.0329 18.0711 12.1641 18.3775 11.3203C18.4638 11.1114 18.5362 10.8998 18.6142 10.6909C18.6922 10.482 18.7868 10.2787 18.8704 10.0699C18.9539 9.86102 19.0486 9.66051 19.1489 9.45722L19.2881 9.15368L19.4385 8.8557C19.8277 8.05104 20.2686 7.27244 20.7585 6.52481C20.9924 6.13772 21.2625 5.78127 21.516 5.41089C21.6413 5.22152 21.7944 5.05443 21.9225 4.85393C22.0506 4.65342 22.1871 4.48076 22.3375 4.29696C23.4876 2.87393 24.7909 1.53443 26.1777 0.119747L26.1053 0C25.6987 0.253418 25.2838 0.498481 24.8828 0.763038L24.2896 1.17519C24.0891 1.30886 23.8942 1.45367 23.7076 1.60127L23.1506 2.04962C22.9613 2.19722 22.7858 2.3643 22.5937 2.52304C22.2261 2.83494 21.8863 3.17747 21.5438 3.51722C20.8666 4.21024 20.2446 4.95512 19.6835 5.74506C19.1177 6.52814 18.6184 7.3572 18.1909 8.22355C17.3425 9.96157 16.773 11.8223 16.5033 13.7375C16.2119 15.6483 16.2382 17.5942 16.5813 19.4965L16.7066 19.4825Z" fill="#888973"></path><path d="M16.7066 19.4825C16.7901 18.5079 16.8876 17.5638 17.0463 16.6365C17.1132 16.1742 17.1939 15.7147 17.2914 15.2608C17.3889 14.8068 17.4724 14.3585 17.5894 13.9157C17.8261 13.0329 18.0711 12.1641 18.3775 11.3203C18.4638 11.1114 18.5362 10.8998 18.6142 10.6909C18.6922 10.482 18.7868 10.2787 18.8704 10.0699C18.9539 9.86102 19.0486 9.66051 19.1489 9.45722L19.2881 9.15368L19.4385 8.8557C19.8277 8.05104 20.2686 7.27244 20.7585 6.52481C20.9924 6.13772 21.2625 5.78127 21.516 5.41089C21.6413 5.22152 21.7944 5.05443 21.9225 4.85393C22.0506 4.65342 22.1871 4.48076 22.3375 4.29696C23.4876 2.87393 24.7909 1.53443 26.1777 0.119747L26.1053 0C25.6987 0.253418 25.2838 0.498481 24.8828 0.763038L24.2896 1.17519C24.0891 1.30886 23.8942 1.45367 23.7076 1.60127L23.1506 2.04962C22.9613 2.19722 22.7858 2.3643 22.5937 2.52304C22.2261 2.83494 21.8863 3.17747 21.5438 3.51722C20.8666 4.21024 20.2446 4.95512 19.6835 5.74506C19.1177 6.52814 18.6184 7.3572 18.1909 8.22355C17.3425 9.96157 16.773 11.8223 16.5033 13.7375C16.2119 15.6483 16.2382 17.5942 16.5813 19.4965L16.7066 19.4825Z" fill="#888973"></path><path d="M73.1517 31.2163C71.1519 29.9391 68.8995 29.1097 66.5489 28.7851C64.2348 28.4036 61.8705 28.373 59.4894 28.3758C57.1084 28.3785 54.7023 28.4704 52.2489 28.412C51.0072 28.3905 49.7678 28.2975 48.5368 28.1335C47.2658 27.9728 46.0127 27.6931 44.794 27.298C43.5289 26.8764 42.3416 26.2498 41.2796 25.4433C40.2021 24.6262 39.2829 23.6192 38.5671 22.472C38.3861 22.1935 38.2191 21.8844 38.0575 21.5808L38.0269 21.5112L38.013 21.4806L37.9851 21.4165L37.9378 21.2968L37.8487 21.0628C37.7902 20.9069 37.7373 20.7537 37.6871 20.5978C37.4843 19.985 37.317 19.3611 37.1859 18.7292C36.9092 17.4652 36.8015 16.1701 36.8656 14.8778C36.929 13.5725 37.1998 12.2856 37.6677 11.0654C38.1603 9.86224 38.8628 8.7562 39.7423 7.79878C41.5135 5.92461 43.8082 4.77169 46.1474 4.15625L46.1975 4.28714C43.9697 5.156 41.8532 6.43144 40.3299 8.28334C39.5685 9.2052 38.9781 10.2558 38.5866 11.3856C38.2048 12.5175 38.0046 13.7028 37.9935 14.8973C37.9827 16.0929 38.1184 17.2853 38.3973 18.4479C38.534 19.0297 38.7032 19.6033 38.9041 20.1661C39.0044 20.4446 39.1158 20.7231 39.2327 21.0016C39.3497 21.2801 39.5112 21.5168 39.6866 21.7646C40.3257 22.7702 41.143 23.6508 42.0983 24.3628C43.0598 25.0672 44.124 25.6195 45.2535 26.0003C47.5148 26.7745 49.9292 27.0195 52.3213 27.1393C54.7135 27.259 57.1279 27.2368 59.534 27.3175C61.9483 27.3509 64.3539 27.6129 66.7188 28.1001C69.0664 28.6292 71.3667 29.576 73.2408 31.1216L73.1517 31.2163Z" fill="#888973"></path><path d="M73.1517 31.2163C71.1519 29.9391 68.8995 29.1097 66.5489 28.7851C64.2348 28.4036 61.8705 28.373 59.4894 28.3758C57.1084 28.3785 54.7023 28.4704 52.2489 28.412C51.0072 28.3905 49.7678 28.2975 48.5368 28.1335C47.2658 27.9728 46.0127 27.6931 44.794 27.298C43.5289 26.8764 42.3416 26.2498 41.2796 25.4433C40.2021 24.6262 39.2829 23.6192 38.5671 22.472C38.3861 22.1935 38.2191 21.8844 38.0575 21.5808L38.0269 21.5112L38.013 21.4806L37.9851 21.4165L37.9378 21.2968L37.8487 21.0628C37.7902 20.9069 37.7373 20.7537 37.6871 20.5978C37.4843 19.985 37.317 19.3611 37.1859 18.7292C36.9092 17.4652 36.8015 16.1701 36.8656 14.8778C36.929 13.5725 37.1998 12.2856 37.6677 11.0654C38.1603 9.86224 38.8628 8.7562 39.7423 7.79878C41.5135 5.92461 43.8082 4.77169 46.1474 4.15625L46.1975 4.28714C43.9697 5.156 41.8532 6.43144 40.3299 8.28334C39.5685 9.2052 38.9781 10.2558 38.5866 11.3856C38.2048 12.5175 38.0046 13.7028 37.9935 14.8973C37.9827 16.0929 38.1184 17.2853 38.3973 18.4479C38.534 19.0297 38.7032 19.6033 38.9041 20.1661C39.0044 20.4446 39.1158 20.7231 39.2327 21.0016C39.3497 21.2801 39.5112 21.5168 39.6866 21.7646C40.3257 22.7702 41.143 23.6508 42.0983 24.3628C43.0598 25.0672 44.124 25.6195 45.2535 26.0003C47.5148 26.7745 49.9292 27.0195 52.3213 27.1393C54.7135 27.259 57.1279 27.2368 59.534 27.3175C61.9483 27.3509 64.3539 27.6129 66.7188 28.1001C69.0664 28.6292 71.3667 29.576 73.2408 31.1216L73.1517 31.2163Z" fill="#888973"></path><path d="M45.1399 26.021V25.6228V10.8633H48.5012V42.5127C49.8027 42.6794 51.0862 42.9647 52.3359 43.3648V43.7909H41.4473V43.3648C42.0403 43.1236 42.6499 42.9253 43.2713 42.7717C43.8879 42.6448 44.5121 42.5582 45.1399 42.5127V26.021Z" fill="#888973"></path><path d="M45.1399 26.021V25.6228V10.8633H48.5012V42.5127C49.8027 42.6794 51.0862 42.9647 52.3359 43.3648V43.7909H41.4473V43.3648C42.0403 43.1236 42.6499 42.9253 43.2713 42.7717C43.8879 42.6448 44.5121 42.5582 45.1399 42.5127V26.021Z" fill="#888973"></path><path d="M67.4889 42.5127C68.1168 42.5582 68.741 42.6448 69.3575 42.7716C69.979 42.9253 70.5886 43.1236 71.1816 43.3648V43.7909H60.293V43.3648C61.5426 42.9647 62.8262 42.6794 64.1277 42.5127V10.8633H67.4889V25.6228V26.021V42.5127Z" fill="#888973"></path><path d="M67.4889 42.5127C68.1168 42.5582 68.741 42.6448 69.3575 42.7716C69.979 42.9253 70.5886 43.1236 71.1816 43.3648V43.7909H60.293V43.3648C61.5426 42.9647 62.8262 42.6794 64.1277 42.5127V10.8633H67.4889V25.6228V26.021V42.5127Z" fill="#888973"></path><path d="M3.69266 15.1918V14.7908V0.03125H7.05393V31.6806C8.35519 31.8488 9.63862 32.134 10.8886 32.5328V32.9589H0V32.5328C0.592989 32.2915 1.20258 32.0933 1.82405 31.9396C2.44062 31.8127 3.06482 31.7262 3.69266 31.6806V15.1918Z" fill="#888973"></path><path d="M3.69266 15.1918V14.7908V0.03125H7.05393V31.6806C8.35519 31.8488 9.63862 32.134 10.8886 32.5328V32.9589H0V32.5328C0.592989 32.2915 1.20258 32.0933 1.82405 31.9396C2.44062 31.8127 3.06482 31.7262 3.69266 31.6806V15.1918Z" fill="#888973"></path><path d="M29.4616 31.6806C30.0903 31.7264 30.7154 31.8129 31.333 31.9396C31.9536 32.093 32.5623 32.2912 33.1542 32.5328V32.9589H22.2656V32.5328C23.5158 32.1346 24.7992 31.8494 26.1003 31.6806V0.03125H29.4616V14.7908V15.1918V31.6806Z" fill="#888973"></path><path d="M29.4616 31.6806C30.0903 31.7264 30.7154 31.8129 31.333 31.9396C31.9536 32.093 32.5623 32.2912 33.1542 32.5328V32.9589H22.2656V32.5328C23.5158 32.1346 24.7992 31.8494 26.1003 31.6806V0.03125H29.4616V14.7908V15.1918V31.6806Z" fill="#888973"></path><path d="M40.8028 6.94705C40.7992 6.94 40.7941 6.93384 40.7879 6.92902C40.7816 6.9242 40.7743 6.92085 40.7666 6.9192H40.8139H40.8752L40.9977 6.90528L41.2428 6.87465L41.7301 6.81059C42.056 6.76882 42.379 6.72148 42.6993 6.66579C43.3398 6.55718 43.9719 6.44857 44.5901 6.29541C45.2052 6.16249 45.8123 5.99514 46.4086 5.79414C46.9873 5.60721 47.5529 5.38207 48.1018 5.12022C48.3803 4.98655 48.6253 4.84173 48.8704 4.69135C49.1159 4.54717 49.353 4.38911 49.5805 4.21794C50.0163 3.89364 50.4012 3.50597 50.7223 3.06781C51.3499 2.20077 51.7135 1.17085 51.7694 0.101985L52.9251 1.44705C52.6772 1.42756 52.3542 1.4192 52.0618 1.4192C51.7694 1.4192 51.4631 1.4192 51.1623 1.43312C50.558 1.44705 49.9593 1.50274 49.3605 1.55844C48.1779 1.67825 47.0117 1.92569 45.8823 2.29642C45.3314 2.48673 44.7968 2.72142 44.2838 2.99819C43.77 3.27171 43.2913 3.60647 42.858 3.99515C42.4084 4.38947 42.0132 4.84178 41.6828 5.34021C41.5086 5.59606 41.3514 5.86304 41.2122 6.13945C41.1398 6.27869 41.0701 6.41794 41.0061 6.56553L40.956 6.67414C40.942 6.70199 40.9309 6.72705 40.9142 6.7549C40.8731 6.81659 40.8359 6.88076 40.8028 6.94705ZM40.6914 7.0306C40.7046 6.85203 40.7335 6.67497 40.7777 6.50148C40.813 6.34553 40.8548 6.18958 40.9031 6.03363C40.9948 5.72303 41.1093 5.41959 41.2456 5.12578C41.5165 4.53548 41.869 3.98615 42.2927 3.49388C43.1646 2.52466 44.2428 1.76335 45.4479 1.26603C46.6399 0.766786 47.8913 0.42328 49.1712 0.244009C50.4473 0.0522877 51.7389 -0.0157906 53.0281 0.0407186H53.1674V0.182742C53.0904 1.52424 52.6045 2.81 51.775 3.86705C50.9071 4.88285 49.7928 5.65862 48.539 6.11996C47.3048 6.58867 46.0131 6.88934 44.6988 7.01389C44.0443 7.08072 43.3871 7.11692 42.7327 7.11971C42.4041 7.11971 42.0755 7.11971 41.7469 7.11971L41.2539 7.09465L41.0089 7.07794H40.8863H40.8251H40.7666C40.751 7.07731 40.7359 7.07261 40.7227 7.06431C40.7095 7.056 40.6987 7.04438 40.6914 7.0306Z" fill="#888973"></path><path d="M40.8028 6.94705C40.7992 6.94 40.7941 6.93384 40.7879 6.92902C40.7816 6.9242 40.7743 6.92085 40.7666 6.9192H40.8139H40.8752L40.9977 6.90528L41.2428 6.87465L41.7301 6.81059C42.056 6.76882 42.379 6.72148 42.6993 6.66579C43.3398 6.55718 43.9719 6.44857 44.5901 6.29541C45.2052 6.16249 45.8123 5.99514 46.4086 5.79414C46.9873 5.60721 47.5529 5.38207 48.1018 5.12022C48.3803 4.98655 48.6253 4.84173 48.8704 4.69135C49.1159 4.54717 49.353 4.38911 49.5805 4.21794C50.0163 3.89364 50.4012 3.50597 50.7223 3.06781C51.3499 2.20077 51.7135 1.17085 51.7694 0.101985L52.9251 1.44705C52.6772 1.42756 52.3542 1.4192 52.0618 1.4192C51.7694 1.4192 51.4631 1.4192 51.1623 1.43312C50.558 1.44705 49.9593 1.50274 49.3605 1.55844C48.1779 1.67825 47.0117 1.92569 45.8823 2.29642C45.3314 2.48673 44.7968 2.72142 44.2838 2.99819C43.77 3.27171 43.2913 3.60647 42.858 3.99515C42.4084 4.38947 42.0132 4.84178 41.6828 5.34021C41.5086 5.59606 41.3514 5.86304 41.2122 6.13945C41.1398 6.27869 41.0701 6.41794 41.0061 6.56553L40.956 6.67414C40.942 6.70199 40.9309 6.72705 40.9142 6.7549C40.8731 6.81659 40.8359 6.88076 40.8028 6.94705ZM40.6914 7.0306C40.7046 6.85203 40.7335 6.67497 40.7777 6.50148C40.813 6.34553 40.8548 6.18958 40.9031 6.03363C40.9948 5.72303 41.1093 5.41959 41.2456 5.12578C41.5165 4.53548 41.869 3.98615 42.2927 3.49388C43.1646 2.52466 44.2428 1.76335 45.4479 1.26603C46.6399 0.766786 47.8913 0.42328 49.1712 0.244009C50.4473 0.0522877 51.7389 -0.0157906 53.0281 0.0407186H53.1674V0.182742C53.0904 1.52424 52.6045 2.81 51.775 3.86705C50.9071 4.88285 49.7928 5.65862 48.539 6.11996C47.3048 6.58867 46.0131 6.88934 44.6988 7.01389C44.0443 7.08072 43.3871 7.11692 42.7327 7.11971C42.4041 7.11971 42.0755 7.11971 41.7469 7.11971L41.2539 7.09465L41.0089 7.07794H40.8863H40.8251H40.7666C40.751 7.07731 40.7359 7.07261 40.7227 7.06431C40.7095 7.056 40.6987 7.04438 40.6914 7.0306Z" fill="#888973"></path></svg>