<svg xmlns="http://www.w3.org/2000/svg" width="168" height="63" viewBox="0 0 168 63" fill="none"><path d="M1.51172 25.0228H6.02372V38.7268H9.45572V25.0228H13.9917V21.9268H1.51172V25.0228Z" fill="#888973"></path><path d="M1.51172 25.0228H6.02372V38.7268H9.45572V25.0228H13.9917V21.9268H1.51172V25.0228Z" fill="#888973"></path><path d="M18.7737 20.0068H15.6537V38.7268H18.7737V20.0068ZM22.7817 32.0068V38.7268H25.9017V31.5508C25.9017 30.6388 25.7657 29.8708 25.4937 29.2468C25.2217 28.6068 24.8057 28.1268 24.2457 27.8068C23.6857 27.4868 22.9737 27.3268 22.1097 27.3268C21.2457 27.3268 20.5177 27.5348 19.9257 27.9508C19.3337 28.3668 18.8857 28.9268 18.5817 29.6308C18.2937 30.3348 18.1497 31.1268 18.1497 32.0068H18.7737C18.7737 31.5428 18.8617 31.1428 19.0377 30.8068C19.2137 30.4708 19.4697 30.2148 19.8057 30.0388C20.1417 29.8468 20.5257 29.7508 20.9577 29.7508C21.6137 29.7508 22.0777 29.9428 22.3497 30.3268C22.6377 30.7108 22.7817 31.2708 22.7817 32.0068Z" fill="#888973"></path><path d="M18.7737 20.0068H15.6537V38.7268H18.7737V20.0068ZM22.7817 32.0068V38.7268H25.9017V31.5508C25.9017 30.6388 25.7657 29.8708 25.4937 29.2468C25.2217 28.6068 24.8057 28.1268 24.2457 27.8068C23.6857 27.4868 22.9737 27.3268 22.1097 27.3268C21.2457 27.3268 20.5177 27.5348 19.9257 27.9508C19.3337 28.3668 18.8857 28.9268 18.5817 29.6308C18.2937 30.3348 18.1497 31.1268 18.1497 32.0068H18.7737C18.7737 31.5428 18.8617 31.1428 19.0377 30.8068C19.2137 30.4708 19.4697 30.2148 19.8057 30.0388C20.1417 29.8468 20.5257 29.7508 20.9577 29.7508C21.6137 29.7508 22.0777 29.9428 22.3497 30.3268C22.6377 30.7108 22.7817 31.2708 22.7817 32.0068Z" fill="#888973"></path><path d="M34.1742 38.9668C35.5022 38.9668 36.6382 38.7108 37.5822 38.1988C38.5422 37.6708 39.3102 36.8868 39.8862 35.8468L37.1742 35.0068C36.8542 35.5348 36.4462 35.9348 35.9502 36.2068C35.4702 36.4628 34.8862 36.5908 34.1982 36.5908C33.5902 36.5908 33.0702 36.4548 32.6382 36.1828C32.2062 35.9108 31.8782 35.5188 31.6542 35.0068C31.4462 34.4948 31.3422 33.8708 31.3422 33.1348C31.3582 32.3668 31.4702 31.7268 31.6782 31.2148C31.9022 30.6868 32.2142 30.2948 32.6142 30.0388C33.0302 29.7668 33.5422 29.6308 34.1502 29.6308C34.6462 29.6308 35.0782 29.7428 35.4462 29.9668C35.8142 30.1908 36.0942 30.4948 36.2862 30.8788C36.4942 31.2628 36.5982 31.7268 36.5982 32.2708C36.5982 32.3828 36.5662 32.5268 36.5022 32.7028C36.4542 32.8628 36.3982 32.9908 36.3342 33.0868L37.1742 31.9828H29.9982V33.9028H39.8862C39.9022 33.8068 39.9102 33.6788 39.9102 33.5188C39.9262 33.3588 39.9342 33.2068 39.9342 33.0628C39.9342 31.8788 39.7102 30.8708 39.2622 30.0388C38.8142 29.1908 38.1582 28.5508 37.2942 28.1188C36.4462 27.6708 35.4142 27.4468 34.1982 27.4468C32.9822 27.4468 31.9262 27.6868 31.0302 28.1668C30.1342 28.6308 29.4382 29.2948 28.9422 30.1588C28.4622 31.0068 28.2222 32.0228 28.2222 33.2068C28.2222 34.3748 28.4622 35.3908 28.9422 36.2548C29.4382 37.1028 30.1342 37.7668 31.0302 38.2468C31.9262 38.7268 32.9742 38.9668 34.1742 38.9668Z" fill="#888973"></path><path d="M34.1742 38.9668C35.5022 38.9668 36.6382 38.7108 37.5822 38.1988C38.5422 37.6708 39.3102 36.8868 39.8862 35.8468L37.1742 35.0068C36.8542 35.5348 36.4462 35.9348 35.9502 36.2068C35.4702 36.4628 34.8862 36.5908 34.1982 36.5908C33.5902 36.5908 33.0702 36.4548 32.6382 36.1828C32.2062 35.9108 31.8782 35.5188 31.6542 35.0068C31.4462 34.4948 31.3422 33.8708 31.3422 33.1348C31.3582 32.3668 31.4702 31.7268 31.6782 31.2148C31.9022 30.6868 32.2142 30.2948 32.6142 30.0388C33.0302 29.7668 33.5422 29.6308 34.1502 29.6308C34.6462 29.6308 35.0782 29.7428 35.4462 29.9668C35.8142 30.1908 36.0942 30.4948 36.2862 30.8788C36.4942 31.2628 36.5982 31.7268 36.5982 32.2708C36.5982 32.3828 36.5662 32.5268 36.5022 32.7028C36.4542 32.8628 36.3982 32.9908 36.3342 33.0868L37.1742 31.9828H29.9982V33.9028H39.8862C39.9022 33.8068 39.9102 33.6788 39.9102 33.5188C39.9262 33.3588 39.9342 33.2068 39.9342 33.0628C39.9342 31.8788 39.7102 30.8708 39.2622 30.0388C38.8142 29.1908 38.1582 28.5508 37.2942 28.1188C36.4462 27.6708 35.4142 27.4468 34.1982 27.4468C32.9822 27.4468 31.9262 27.6868 31.0302 28.1668C30.1342 28.6308 29.4382 29.2948 28.9422 30.1588C28.4622 31.0068 28.2222 32.0228 28.2222 33.2068C28.2222 34.3748 28.4622 35.3908 28.9422 36.2548C29.4382 37.1028 30.1342 37.7668 31.0302 38.2468C31.9262 38.7268 32.9742 38.9668 34.1742 38.9668Z" fill="#888973"></path><path d="M59.1338 31.1068H64.6778C66.7311 31.1068 68.5351 30.8281 70.0898 30.2708C71.6444 29.6841 72.8618 28.8334 73.7418 27.7188C74.6218 26.6041 75.0618 25.2694 75.0618 23.7148C75.0618 21.9548 74.6218 20.5028 73.7418 19.3588C72.8618 18.2148 71.6444 17.3641 70.0898 16.8068C68.5351 16.2201 66.7311 15.9268 64.6778 15.9268H54.4258V46.7268H65.3378C67.6258 46.7268 69.6351 46.4188 71.3658 45.8028C73.0964 45.1868 74.4311 44.2334 75.3698 42.9428C76.3378 41.6521 76.8218 39.9948 76.8218 37.9708C76.8218 36.4454 76.4991 35.1401 75.8538 34.0548C75.2378 32.9694 74.3871 32.0894 73.3018 31.4148C72.2164 30.7108 70.9844 30.1974 69.6058 29.8748C68.2564 29.5521 66.8338 29.3908 65.3378 29.3908H59.1338V32.8228H64.7658C65.5578 32.8228 66.2911 32.9108 66.9658 33.0868C67.6404 33.2334 68.2271 33.4974 68.7258 33.8788C69.2538 34.2308 69.6498 34.6854 69.9138 35.2428C70.2071 35.7708 70.3538 36.4161 70.3538 37.1788C70.3538 38.2348 70.1045 39.1001 69.6058 39.7748C69.1364 40.4494 68.4764 40.9481 67.6258 41.2708C66.7751 41.5641 65.8218 41.7108 64.7658 41.7108H60.7178V20.9428H64.1058C65.4844 20.9428 66.5698 21.2508 67.3618 21.8668C68.1831 22.4828 68.5938 23.3774 68.5938 24.5508C68.5938 25.3134 68.4031 25.9734 68.0218 26.5308C67.6698 27.0881 67.1564 27.5134 66.4818 27.8068C65.8071 28.1001 65.0151 28.2468 64.1058 28.2468H59.1338V31.1068Z" fill="#888973"></path><path d="M59.1338 31.1068H64.6778C66.7311 31.1068 68.5351 30.8281 70.0898 30.2708C71.6444 29.6841 72.8618 28.8334 73.7418 27.7188C74.6218 26.6041 75.0618 25.2694 75.0618 23.7148C75.0618 21.9548 74.6218 20.5028 73.7418 19.3588C72.8618 18.2148 71.6444 17.3641 70.0898 16.8068C68.5351 16.2201 66.7311 15.9268 64.6778 15.9268H54.4258V46.7268H65.3378C67.6258 46.7268 69.6351 46.4188 71.3658 45.8028C73.0964 45.1868 74.4311 44.2334 75.3698 42.9428C76.3378 41.6521 76.8218 39.9948 76.8218 37.9708C76.8218 36.4454 76.4991 35.1401 75.8538 34.0548C75.2378 32.9694 74.3871 32.0894 73.3018 31.4148C72.2164 30.7108 70.9844 30.1974 69.6058 29.8748C68.2564 29.5521 66.8338 29.3908 65.3378 29.3908H59.1338V32.8228H64.7658C65.5578 32.8228 66.2911 32.9108 66.9658 33.0868C67.6404 33.2334 68.2271 33.4974 68.7258 33.8788C69.2538 34.2308 69.6498 34.6854 69.9138 35.2428C70.2071 35.7708 70.3538 36.4161 70.3538 37.1788C70.3538 38.2348 70.1045 39.1001 69.6058 39.7748C69.1364 40.4494 68.4764 40.9481 67.6258 41.2708C66.7751 41.5641 65.8218 41.7108 64.7658 41.7108H60.7178V20.9428H64.1058C65.4844 20.9428 66.5698 21.2508 67.3618 21.8668C68.1831 22.4828 68.5938 23.3774 68.5938 24.5508C68.5938 25.3134 68.4031 25.9734 68.0218 26.5308C67.6698 27.0881 67.1564 27.5134 66.4818 27.8068C65.8071 28.1001 65.0151 28.2468 64.1058 28.2468H59.1338V31.1068Z" fill="#888973"></path><path d="M85.7036 40.4348C85.7036 39.8481 85.8356 39.3641 86.0996 38.9828C86.3636 38.5721 86.7743 38.2641 87.3316 38.0588C87.8889 37.8241 88.6076 37.7068 89.4876 37.7068C90.5729 37.7068 91.5996 37.8534 92.5676 38.1468C93.5649 38.4401 94.4596 38.8801 95.2516 39.4668V36.8268C94.9583 36.4748 94.4743 36.1081 93.7996 35.7268C93.1249 35.3454 92.2889 35.0228 91.2916 34.7588C90.3236 34.4948 89.1943 34.3628 87.9036 34.3628C85.3809 34.3628 83.4303 34.9348 82.0516 36.0788C80.6729 37.2228 79.9836 38.7774 79.9836 40.7428C79.9836 42.1214 80.3063 43.2948 80.9516 44.2628C81.6263 45.2014 82.5063 45.9201 83.5916 46.4188C84.6769 46.9174 85.8503 47.1668 87.1116 47.1668C88.3436 47.1668 89.5169 46.9468 90.6316 46.5068C91.7756 46.0668 92.6996 45.4068 93.4036 44.5268C94.1369 43.6468 94.5036 42.5614 94.5036 41.2708L93.7996 38.6308C93.7996 39.5988 93.5796 40.4348 93.1396 41.1388C92.6996 41.8134 92.1276 42.3414 91.4236 42.7228C90.7196 43.0748 89.9276 43.2508 89.0476 43.2508C88.4316 43.2508 87.8596 43.1481 87.3316 42.9428C86.8329 42.7081 86.4369 42.3854 86.1436 41.9748C85.8503 41.5348 85.7036 41.0214 85.7036 40.4348ZM83.5036 32.2068C83.7969 32.0014 84.2516 31.7521 84.8676 31.4588C85.4836 31.1654 86.2169 30.9161 87.0676 30.7108C87.9183 30.5054 88.8129 30.4028 89.7516 30.4028C90.3676 30.4028 90.9249 30.4614 91.4236 30.5788C91.9223 30.6961 92.3476 30.8868 92.6996 31.1508C93.0809 31.4148 93.3596 31.7521 93.5356 32.1628C93.7116 32.5441 93.7996 33.0134 93.7996 33.5708V46.7268H99.2996V32.3828C99.2996 31.0041 98.9183 29.8454 98.1556 28.9068C97.3929 27.9388 96.3369 27.2054 94.9876 26.7068C93.6383 26.2081 92.0983 25.9588 90.3676 25.9588C88.4903 25.9588 86.7889 26.2228 85.2636 26.7508C83.7383 27.2494 82.4476 27.7774 81.3916 28.3348L83.5036 32.2068Z" fill="#888973"></path><path d="M85.7036 40.4348C85.7036 39.8481 85.8356 39.3641 86.0996 38.9828C86.3636 38.5721 86.7743 38.2641 87.3316 38.0588C87.8889 37.8241 88.6076 37.7068 89.4876 37.7068C90.5729 37.7068 91.5996 37.8534 92.5676 38.1468C93.5649 38.4401 94.4596 38.8801 95.2516 39.4668V36.8268C94.9583 36.4748 94.4743 36.1081 93.7996 35.7268C93.1249 35.3454 92.2889 35.0228 91.2916 34.7588C90.3236 34.4948 89.1943 34.3628 87.9036 34.3628C85.3809 34.3628 83.4303 34.9348 82.0516 36.0788C80.6729 37.2228 79.9836 38.7774 79.9836 40.7428C79.9836 42.1214 80.3063 43.2948 80.9516 44.2628C81.6263 45.2014 82.5063 45.9201 83.5916 46.4188C84.6769 46.9174 85.8503 47.1668 87.1116 47.1668C88.3436 47.1668 89.5169 46.9468 90.6316 46.5068C91.7756 46.0668 92.6996 45.4068 93.4036 44.5268C94.1369 43.6468 94.5036 42.5614 94.5036 41.2708L93.7996 38.6308C93.7996 39.5988 93.5796 40.4348 93.1396 41.1388C92.6996 41.8134 92.1276 42.3414 91.4236 42.7228C90.7196 43.0748 89.9276 43.2508 89.0476 43.2508C88.4316 43.2508 87.8596 43.1481 87.3316 42.9428C86.8329 42.7081 86.4369 42.3854 86.1436 41.9748C85.8503 41.5348 85.7036 41.0214 85.7036 40.4348ZM83.5036 32.2068C83.7969 32.0014 84.2516 31.7521 84.8676 31.4588C85.4836 31.1654 86.2169 30.9161 87.0676 30.7108C87.9183 30.5054 88.8129 30.4028 89.7516 30.4028C90.3676 30.4028 90.9249 30.4614 91.4236 30.5788C91.9223 30.6961 92.3476 30.8868 92.6996 31.1508C93.0809 31.4148 93.3596 31.7521 93.5356 32.1628C93.7116 32.5441 93.7996 33.0134 93.7996 33.5708V46.7268H99.2996V32.3828C99.2996 31.0041 98.9183 29.8454 98.1556 28.9068C97.3929 27.9388 96.3369 27.2054 94.9876 26.7068C93.6383 26.2081 92.0983 25.9588 90.3676 25.9588C88.4903 25.9588 86.7889 26.2228 85.2636 26.7508C83.7383 27.2494 82.4476 27.7774 81.3916 28.3348L83.5036 32.2068Z" fill="#888973"></path><path d="M101.482 26.4868L112.57 48.8388L123.658 26.4868H117.542L112.57 38.6748L107.598 26.4868H101.482Z" fill="#888973"></path><path d="M101.482 26.4868L112.57 48.8388L123.658 26.4868H117.542L112.57 38.6748L107.598 26.4868H101.482Z" fill="#888973"></path><path d="M135.29 47.1668C137.724 47.1668 139.807 46.6974 141.538 45.7588C143.298 44.7908 144.706 43.3534 145.762 41.4468L140.79 39.9068C140.203 40.8748 139.455 41.6081 138.546 42.1068C137.666 42.5761 136.595 42.8108 135.334 42.8108C134.219 42.8108 133.266 42.5614 132.474 42.0628C131.682 41.5641 131.08 40.8454 130.67 39.9068C130.288 38.9681 130.098 37.8241 130.098 36.4748C130.127 35.0668 130.332 33.8934 130.714 32.9548C131.124 31.9868 131.696 31.2681 132.43 30.7988C133.192 30.3001 134.131 30.0508 135.246 30.0508C136.155 30.0508 136.947 30.2561 137.622 30.6668C138.296 31.0774 138.81 31.6348 139.162 32.3388C139.543 33.0428 139.734 33.8934 139.734 34.8908C139.734 35.0961 139.675 35.3601 139.558 35.6828C139.47 35.9761 139.367 36.2108 139.25 36.3868L140.79 34.3628H127.634V37.8828H145.762C145.791 37.7068 145.806 37.4721 145.806 37.1788C145.835 36.8854 145.85 36.6068 145.85 36.3428C145.85 34.1721 145.439 32.3241 144.618 30.7988C143.796 29.2441 142.594 28.0708 141.01 27.2788C139.455 26.4574 137.563 26.0468 135.334 26.0468C133.104 26.0468 131.168 26.4868 129.526 27.3668C127.883 28.2174 126.607 29.4348 125.698 31.0188C124.818 32.5734 124.378 34.4361 124.378 36.6068C124.378 38.7481 124.818 40.6108 125.698 42.1948C126.607 43.7494 127.883 44.9668 129.526 45.8468C131.168 46.7268 133.09 47.1668 135.29 47.1668Z" fill="#888973"></path><path d="M135.29 47.1668C137.724 47.1668 139.807 46.6974 141.538 45.7588C143.298 44.7908 144.706 43.3534 145.762 41.4468L140.79 39.9068C140.203 40.8748 139.455 41.6081 138.546 42.1068C137.666 42.5761 136.595 42.8108 135.334 42.8108C134.219 42.8108 133.266 42.5614 132.474 42.0628C131.682 41.5641 131.08 40.8454 130.67 39.9068C130.288 38.9681 130.098 37.8241 130.098 36.4748C130.127 35.0668 130.332 33.8934 130.714 32.9548C131.124 31.9868 131.696 31.2681 132.43 30.7988C133.192 30.3001 134.131 30.0508 135.246 30.0508C136.155 30.0508 136.947 30.2561 137.622 30.6668C138.296 31.0774 138.81 31.6348 139.162 32.3388C139.543 33.0428 139.734 33.8934 139.734 34.8908C139.734 35.0961 139.675 35.3601 139.558 35.6828C139.47 35.9761 139.367 36.2108 139.25 36.3868L140.79 34.3628H127.634V37.8828H145.762C145.791 37.7068 145.806 37.4721 145.806 37.1788C145.835 36.8854 145.85 36.6068 145.85 36.3428C145.85 34.1721 145.439 32.3241 144.618 30.7988C143.796 29.2441 142.594 28.0708 141.01 27.2788C139.455 26.4574 137.563 26.0468 135.334 26.0468C133.104 26.0468 131.168 26.4868 129.526 27.3668C127.883 28.2174 126.607 29.4348 125.698 31.0188C124.818 32.5734 124.378 34.4361 124.378 36.6068C124.378 38.7481 124.818 40.6108 125.698 42.1948C126.607 43.7494 127.883 44.9668 129.526 45.8468C131.168 46.7268 133.09 47.1668 135.29 47.1668Z" fill="#888973"></path><path d="M155.736 26.4868H150.148V46.7268H155.736V26.4868ZM161.676 32.4268L164.272 27.5868C163.861 27.0588 163.318 26.6628 162.644 26.3988C161.998 26.1348 161.309 26.0028 160.576 26.0028C159.52 26.0028 158.493 26.3841 157.496 27.1468C156.498 27.8801 155.692 28.8774 155.076 30.1388C154.46 31.3708 154.152 32.7934 154.152 34.4068L155.736 35.9908C155.736 35.0228 155.853 34.2014 156.088 33.5268C156.352 32.8228 156.733 32.2801 157.232 31.8988C157.73 31.5174 158.332 31.3268 159.036 31.3268C159.622 31.3268 160.106 31.4294 160.488 31.6348C160.898 31.8108 161.294 32.0748 161.676 32.4268Z" fill="#888973"></path><path d="M155.736 26.4868H150.148V46.7268H155.736V26.4868ZM161.676 32.4268L164.272 27.5868C163.861 27.0588 163.318 26.6628 162.644 26.3988C161.998 26.1348 161.309 26.0028 160.576 26.0028C159.52 26.0028 158.493 26.3841 157.496 27.1468C156.498 27.8801 155.692 28.8774 155.076 30.1388C154.46 31.3708 154.152 32.7934 154.152 34.4068L155.736 35.9908C155.736 35.0228 155.853 34.2014 156.088 33.5268C156.352 32.8228 156.733 32.2801 157.232 31.8988C157.73 31.5174 158.332 31.3268 159.036 31.3268C159.622 31.3268 160.106 31.4294 160.488 31.6348C160.898 31.8108 161.294 32.0748 161.676 32.4268Z" fill="#888973"></path></svg>