<svg xmlns="http://www.w3.org/2000/svg" id="a26fd18d-b083-442c-95a1-902faeed29be" data-name="Layer 1" width="255.875" height="217.9443" viewBox="0 0 255.875 217.9443"><path d="M254.9062,192.3623H214.124a87.7537,87.7537,0,0,1-87.6728-87.6352v-49.95c3.0705-1.4088,5.5662-5.0937,7.2618-9.7384a48.3527,48.3527,0,0,0,2.59-17.6376h-.0008a52.4608,52.4608,0,0,0-3.11-17.8648,24.067,24.067,0,0,0-3.225-6.1186,6.483,6.483,0,0,0-4.15-2.8238l-.103.9793v0l.103-.979a.973.973,0,0,0-.103-.0053,5.5307,5.5307,0,0,0-3.489,1.6972,16.8617,16.8617,0,0,0-3.55,5.0086c-2.24,4.5423-4.042,11.6583-4.042,22.1071,0,6.3331.68,12.008,2.34,16.4448,1.534,4.1,3.9578,7.2111,7.5094,8.7393V95.3286q-.1842-.2286-.39-.4548a16.8651,16.8651,0,0,0-5.009-3.5508c-4.542-2.2391-11.658-4.0418-22.1069-4.0418-6.333,0-12.008.6806-16.4448,2.34-4.2981,1.608-7.5138,4.19-8.952,8.029A89.767,89.767,0,0,0,.0156,185.4229v32.1259a.9844.9844,0,0,0,1.9688,0V185.4229A87.7937,87.7937,0,0,1,71.8563,99.6053c1.5662,2.8387,5.0959,5.1543,9.4826,6.7567a48.3439,48.3439,0,0,0,17.6074,2.5892v.0008a52.4587,52.4587,0,0,0,17.8947-3.112,24.0948,24.0948,0,0,0,6.119-3.224,10.3707,10.3707,0,0,0,1.5224-1.4215v3.5326a89.7243,89.7243,0,0,0,89.6416,89.604h40.7822a.9844.9844,0,0,0,0-1.9688ZM121.755,101.059a22.17,22.17,0,0,1-5.61,2.94,50.5173,50.5173,0,0,1-17.1987,2.984h-.03a46.3729,46.3729,0,0,1-16.9018-2.471c-3.9256-1.4333-6.7073-3.32-8.0795-5.31a87.87,87.87,0,0,1,15.7225-1.414h21.4107a.9844.9844,0,0,0,0-1.9688H89.6572A89.8587,89.8587,0,0,0,73.93,97.2014c1.3547-2.5513,3.823-4.4385,7.2907-5.7358,4.1211-1.5417,9.5283-2.2156,15.755-2.2156,10.2379,0,17.0359,1.7683,21.2369,3.8389a14.93,14.93,0,0,1,4.426,3.1139,3.852,3.852,0,0,1,1.177,2.11A4.7247,4.7247,0,0,1,121.755,101.059Zm3.7118-87.3446a.9846.9846,0,0,0-.9844.9843V52.407c-2.5151-1.363-4.38-3.8151-5.6654-7.25-1.542-4.121-2.215-9.5283-2.215-15.755,0-10.2379,1.768-17.0362,3.838-21.2365a14.9322,14.9322,0,0,1,3.114-4.4266,3.86,3.86,0,0,1,2.108-1.1769,4.72,4.72,0,0,1,2.749,2.0612,22.1732,22.1732,0,0,1,2.939,5.61,50.49,50.49,0,0,1,2.984,17.1985l.001.03.984-.03h.003l-.987.03a46.4157,46.4157,0,0,1-2.471,16.9018c-1.4588,3.9934-3.3858,6.8088-5.4128,8.1542V14.6987A.9846.9846,0,0,0,125.4668,13.7144Z" transform="translate(-0.0156 -0.5889)"></path></svg>