<svg xmlns="http://www.w3.org/2000/svg" id="a3a030ef-e2e2-48b1-9d36-0d9a6bb0f82e" data-name="Layer 1" width="139.1904" height="153.9407" viewBox="0 0 139.1904 153.9407"><path d="M38.0947,107.3564H26.1064l-3.7041-11.4a2,2,0,0,0-3.8046,0l-3.7041,11.4H2.9053A2,2,0,0,0,1.73,110.9736l9.6982,7.0469L7.7241,129.4219a1.9987,1.9987,0,0,0,3.0777,2.2353L20.5,124.6123l9.6982,7.0449a2,2,0,0,0,3.0782-2.2343l-3.7046-11.4024,9.6968-7.0459a1.9995,1.9995,0,0,0-1.1739-3.6182ZM27.8081,116.83a.9988.9988,0,0,0-.3633,1.1172L31.374,130.04l-10.2861-7.4726a.9964.9964,0,0,0-1.1758,0L9.626,130.04l3.9292-12.0927a.9988.9988,0,0,0-.3633-1.1172L2.9053,109.3564H15.62a1.0005,1.0005,0,0,0,.9512-.6914L20.5,96.5732l3.9287,12.0918a1.0005,1.0005,0,0,0,.9512.6914H38.0942Z" transform="translate(-0.9045 -0.5889)"></path><path d="M139.9971,108.7383a1.9958,1.9958,0,0,0-1.9024-1.3819H126.1064l-3.7041-11.4a2,2,0,0,0-3.8046,0l-3.7041,11.4H102.9053a1.9989,1.9989,0,0,0-1.1748,3.6172l9.6972,7.0469-3.7041,11.4014a1.999,1.999,0,0,0,3.0782,2.2353l9.6982-7.0449,9.6982,7.0449a2,2,0,0,0,3.0782-2.2343l-3.7041-11.4024,9.6953-7.0449A1.9972,1.9972,0,0,0,139.9971,108.7383ZM127.8086,116.83a.9988.9988,0,0,0-.3633,1.1172L131.374,130.04l-10.2861-7.4726a.9964.9964,0,0,0-1.1758,0L109.626,130.04l3.9287-12.0927a.9988.9988,0,0,0-.3633-1.1172l-10.2861-7.4737H115.62a1,1,0,0,0,.9512-.6914l3.9277-12.0918h.001l3.9287,12.0918a1,1,0,0,0,.9512.6914h12.7139Z" transform="translate(-0.9045 -0.5889)"></path><path d="M88.7158,129.8447H76.7275l-3.7041-11.4a1.9757,1.9757,0,0,0-1.039-1.1617V54.71c3.0017-1.4587,5.4432-5.1024,7.1115-9.6714q.3353-.918.6326-1.8958c.1373-.4512.26-.9224.384-1.3909.055-.2074.1174-.4053.17-.6159.1575-.632.3-1.2813.4334-1.94.0113-.0562.0257-.1091.0368-.1654.1364-.6868.2574-1.3887.3661-2.1.0048-.0313.0114-.0612.0161-.0926a52.7361,52.7361,0,0,0,.5511-9.4065h0l0-.008c0-.0074,0-.0147,0-.0222h0a54.6394,54.6394,0,0,0-1.3111-11.77c-.0078-.0353-.0175-.0682-.0255-.1034-.1573-.6951-.3246-1.3785-.5047-2.043-.0461-.17-.0992-.3287-.1468-.4968-.1474-.5212-.2951-1.0422-.4553-1.54q-.318-.9889-.667-1.9115A24.0891,24.0891,0,0,0,75.35,3.418,6.4851,6.4851,0,0,0,71.2.5942a.9841.9841,0,0,0-.103-.0053,5.53,5.53,0,0,0-3.4889,1.6972,16.8585,16.8585,0,0,0-3.5508,5.0086c-2.2392,4.5423-4.0418,11.6583-4.0418,22.1071,0,6.3331.6806,12.008,2.34,16.4448,1.5554,4.1576,4.0261,7.2968,7.66,8.8008v62.759a1.9842,1.9842,0,0,0-.7969,1.0379l-3.7041,11.4H53.5263a1.9989,1.9989,0,0,0-1.1748,3.6172l9.6973,7.0469L58.3447,151.91a1.999,1.999,0,0,0,3.0781,2.2353l9.6982-7.0449,9.6983,7.0449a2,2,0,0,0,3.0781-2.2344l-3.7041-11.4023,9.6953-7.0449a1.9994,1.9994,0,0,0-1.1728-3.6192ZM61.9844,29.4018c0-10.2379,1.7683-17.0362,3.8389-21.2365a14.9286,14.9286,0,0,1,3.1139-4.4266c.1233-.1128.2429-.2152.3589-.309.0386-.0311.0744-.056.112-.0851.0754-.0583.1512-.1175.2231-.1682.047-.033.09-.06.1358-.09.0585-.0386.118-.0791.1738-.1128.0518-.0312.1-.0564.1493-.0835.0442-.0243.0895-.0506.1317-.0718.0563-.0281.1088-.051.1614-.074.03-.0132.0614-.0281.09-.04.0594-.0237.1149-.0427.1689-.06.0172-.0055.0355-.0124.0522-.0173.0611-.018.1182-.0318.1715-.0421l.0183-.0039a1.2815,1.2815,0,0,1,.1607-.02,2.0266,2.0266,0,0,1,.2928.0624l.0012,0a2.5366,2.5366,0,0,1,.3068.112l.0173.0086a3.1838,3.1838,0,0,1,.3061.1565c.014.0082.0287.019.0428.0274.0968.0579.1947.12.2949.1927.0279.02.057.0454.0851.0668.0882.0666.1765.1341.2671.212.0445.0384.0905.0846.1356.1259.0765.07.1526.1373.2306.2155.0646.0648.1309.14.1964.2105.0606.0653.1205.1254.1819.1958q.1924.2205.39.4747a22.1755,22.1755,0,0,1,2.94,5.61,50.5019,50.5019,0,0,1,2.9839,17.1985l0,.03.9839-.03h.0031l-.987.03a46.3855,46.3855,0,0,1-2.4712,16.9018q-.314.86-.6565,1.6452c-.1111.2556-.23.4881-.3445.7316-.1187.2517-.2345.5121-.357.7508-.1631.317-.3331.6089-.5028.9023-.0789.137-.1553.2838-.2355.4156-.2052.3361-.4163.647-.6291.9483-.0473.0671-.0931.1412-.1407.2067-.2411.33-.487.6351-.7359.92-.02.0229-.0394.049-.0594.0716a10.5006,10.5006,0,0,1-.8118.8227l-.0084.0081a8.056,8.056,0,0,1-.7805.6172V17.4128a1,1,0,0,0-1.9688,0V52.4812a10.1706,10.1706,0,0,1-2.9986-2.3785c-.02-.0227-.0377-.0487-.0573-.0718-.2613-.3041-.5133-.6238-.7528-.9646-.0507-.0725-.0962-.1538-.1459-.2279-.2038-.3024-.4046-.61-.5923-.94-.0963-.17-.1829-.3559-.275-.5328-.1327-.2537-.2694-.5007-.3935-.7691q-.3182-.6894-.6-1.44C62.6583,41.0358,61.9844,35.6285,61.9844,29.4018ZM78.43,139.3184a.9988.9988,0,0,0-.3633,1.1171l3.9288,12.0928-10.2862-7.4726a.9964.9964,0,0,0-1.1758,0L60.247,152.5283l3.9287-12.0928a.9987.9987,0,0,0-.3633-1.1171l-10.2861-7.4737H66.2411a1,1,0,0,0,.9512-.6914L71.12,119.0615h.0009L75.05,131.1533a1,1,0,0,0,.9512.6914H88.7148Z" transform="translate(-0.9045 -0.5889)"></path></svg>