<svg xmlns="http://www.w3.org/2000/svg" width="222" height="27" viewBox="0 0 222 27" fill="none"><path d="M3.7082 1.22617L7.2082 21.6662L10.7082 1.22617H13.5082L8.9582 25.7262H5.4582L0.908203 1.22617H3.7082Z" fill="#888973"></path><path d="M3.7082 1.22617L7.2082 21.6662L10.7082 1.22617H13.5082L8.9582 25.7262H5.4582L0.908203 1.22617H3.7082Z" fill="#888973"></path><path d="M26.7243 8.54117V18.4112C26.7243 21.3745 26.2459 23.4278 25.2893 24.5712C24.3559 25.6912 23.0026 26.2512 21.2293 26.2512C19.4793 26.2512 18.1259 25.6912 17.1693 24.5712C16.2359 23.4278 15.7693 21.3745 15.7693 18.4112V8.54117C15.7693 5.57784 16.2359 3.53617 17.1693 2.41617C18.1259 1.27284 19.4793 0.701172 21.2293 0.701172C23.0026 0.701172 24.3559 1.27284 25.2893 2.41617C26.2459 3.53617 26.7243 5.57784 26.7243 8.54117ZM23.9593 18.9362V8.01617C23.9593 4.65617 23.0609 2.97617 21.2643 2.97617C20.4009 2.97617 19.7243 3.33784 19.2343 4.06117C18.7676 4.78451 18.5343 6.10284 18.5343 8.01617V18.9362C18.5343 20.8495 18.7676 22.1678 19.2343 22.8912C19.7243 23.6145 20.4009 23.9762 21.2643 23.9762C23.0609 23.9762 23.9593 22.2962 23.9593 18.9362Z" fill="#888973"></path><path d="M26.7243 8.54117V18.4112C26.7243 21.3745 26.2459 23.4278 25.2893 24.5712C24.3559 25.6912 23.0026 26.2512 21.2293 26.2512C19.4793 26.2512 18.1259 25.6912 17.1693 24.5712C16.2359 23.4278 15.7693 21.3745 15.7693 18.4112V8.54117C15.7693 5.57784 16.2359 3.53617 17.1693 2.41617C18.1259 1.27284 19.4793 0.701172 21.2293 0.701172C23.0026 0.701172 24.3559 1.27284 25.2893 2.41617C26.2459 3.53617 26.7243 5.57784 26.7243 8.54117ZM23.9593 18.9362V8.01617C23.9593 4.65617 23.0609 2.97617 21.2643 2.97617C20.4009 2.97617 19.7243 3.33784 19.2343 4.06117C18.7676 4.78451 18.5343 6.10284 18.5343 8.01617V18.9362C18.5343 20.8495 18.7676 22.1678 19.2343 22.8912C19.7243 23.6145 20.4009 23.9762 21.2643 23.9762C23.0609 23.9762 23.9593 22.2962 23.9593 18.9362Z" fill="#888973"></path><path d="M32.9239 18.9712C32.9239 20.8845 33.1456 22.2028 33.5889 22.9262C34.0322 23.6262 34.6622 23.9762 35.4789 23.9762C36.2956 23.9762 36.9022 23.6728 37.2989 23.0662C37.7189 22.4362 37.9989 21.2578 38.1389 19.5312L40.5889 19.8462C40.3789 22.2262 39.8422 23.8945 38.9789 24.8512C38.1389 25.7845 36.9256 26.2512 35.3389 26.2512C33.7522 26.2512 32.4922 25.6795 31.5589 24.5362C30.6256 23.3928 30.1589 21.2928 30.1589 18.2362V8.71617C30.1589 5.65951 30.6256 3.55951 31.5589 2.41617C32.4922 1.27284 33.7406 0.701172 35.3039 0.701172C36.8906 0.701172 38.0922 1.10951 38.9089 1.92617C39.7489 2.74284 40.2622 4.20117 40.4489 6.30117L37.8939 6.93117C37.7539 5.43784 37.4856 4.41117 37.0889 3.85117C36.7156 3.26784 36.1439 2.97617 35.3739 2.97617C34.6272 2.97617 34.0322 3.34951 33.5889 4.09617C33.1456 4.81951 32.9239 6.16117 32.9239 8.12117V18.9712Z" fill="#888973"></path><path d="M32.9239 18.9712C32.9239 20.8845 33.1456 22.2028 33.5889 22.9262C34.0322 23.6262 34.6622 23.9762 35.4789 23.9762C36.2956 23.9762 36.9022 23.6728 37.2989 23.0662C37.7189 22.4362 37.9989 21.2578 38.1389 19.5312L40.5889 19.8462C40.3789 22.2262 39.8422 23.8945 38.9789 24.8512C38.1389 25.7845 36.9256 26.2512 35.3389 26.2512C33.7522 26.2512 32.4922 25.6795 31.5589 24.5362C30.6256 23.3928 30.1589 21.2928 30.1589 18.2362V8.71617C30.1589 5.65951 30.6256 3.55951 31.5589 2.41617C32.4922 1.27284 33.7406 0.701172 35.3039 0.701172C36.8906 0.701172 38.0922 1.10951 38.9089 1.92617C39.7489 2.74284 40.2622 4.20117 40.4489 6.30117L37.8939 6.93117C37.7539 5.43784 37.4856 4.41117 37.0889 3.85117C36.7156 3.26784 36.1439 2.97617 35.3739 2.97617C34.6272 2.97617 34.0322 3.34951 33.5889 4.09617C33.1456 4.81951 32.9239 6.16117 32.9239 8.12117V18.9712Z" fill="#888973"></path><path d="M51.9647 25.7262L50.8797 19.3562H45.9447L44.8947 25.7262H42.0947L46.5747 1.22617H50.2847L54.7647 25.7262H51.9647ZM48.4297 4.76117L46.3297 17.1162H50.4947L48.4297 4.76117Z" fill="#888973"></path><path d="M51.9647 25.7262L50.8797 19.3562H45.9447L44.8947 25.7262H42.0947L46.5747 1.22617H50.2847L54.7647 25.7262H51.9647ZM48.4297 4.76117L46.3297 17.1162H50.4947L48.4297 4.76117Z" fill="#888973"></path><path d="M60.3141 14.6312V25.7262H57.5141V1.22617H65.9141V3.46617H60.3141V12.3912H65.3891V14.6312H60.3141Z" fill="#888973"></path><path d="M60.3141 14.6312V25.7262H57.5141V1.22617H65.9141V3.46617H60.3141V12.3912H65.3891V14.6312H60.3141Z" fill="#888973"></path><path d="M79.2926 8.54117V18.4112C79.2926 21.3745 78.8143 23.4278 77.8576 24.5712C76.9243 25.6912 75.571 26.2512 73.7976 26.2512C72.0476 26.2512 70.6943 25.6912 69.7376 24.5712C68.8043 23.4278 68.3376 21.3745 68.3376 18.4112V8.54117C68.3376 5.57784 68.8043 3.53617 69.7376 2.41617C70.6943 1.27284 72.0476 0.701172 73.7976 0.701172C75.571 0.701172 76.9243 1.27284 77.8576 2.41617C78.8143 3.53617 79.2926 5.57784 79.2926 8.54117ZM76.5276 18.9362V8.01617C76.5276 4.65617 75.6293 2.97617 73.8326 2.97617C72.9693 2.97617 72.2926 3.33784 71.8026 4.06117C71.336 4.78451 71.1026 6.10284 71.1026 8.01617V18.9362C71.1026 20.8495 71.336 22.1678 71.8026 22.8912C72.2926 23.6145 72.9693 23.9762 73.8326 23.9762C75.6293 23.9762 76.5276 22.2962 76.5276 18.9362Z" fill="#888973"></path><path d="M79.2926 8.54117V18.4112C79.2926 21.3745 78.8143 23.4278 77.8576 24.5712C76.9243 25.6912 75.571 26.2512 73.7976 26.2512C72.0476 26.2512 70.6943 25.6912 69.7376 24.5712C68.8043 23.4278 68.3376 21.3745 68.3376 18.4112V8.54117C68.3376 5.57784 68.8043 3.53617 69.7376 2.41617C70.6943 1.27284 72.0476 0.701172 73.7976 0.701172C75.571 0.701172 76.9243 1.27284 77.8576 2.41617C78.8143 3.53617 79.2926 5.57784 79.2926 8.54117ZM76.5276 18.9362V8.01617C76.5276 4.65617 75.6293 2.97617 73.8326 2.97617C72.9693 2.97617 72.2926 3.33784 71.8026 4.06117C71.336 4.78451 71.1026 6.10284 71.1026 8.01617V18.9362C71.1026 20.8495 71.336 22.1678 71.8026 22.8912C72.2926 23.6145 72.9693 23.9762 73.8326 23.9762C75.6293 23.9762 76.5276 22.2962 76.5276 18.9362Z" fill="#888973"></path><path d="M93.6823 8.54117V18.4112C93.6823 21.3745 93.2039 23.4278 92.2473 24.5712C91.3139 25.6912 89.9606 26.2512 88.1873 26.2512C86.4373 26.2512 85.0839 25.6912 84.1273 24.5712C83.1939 23.4278 82.7273 21.3745 82.7273 18.4112V8.54117C82.7273 5.57784 83.1939 3.53617 84.1273 2.41617C85.0839 1.27284 86.4373 0.701172 88.1873 0.701172C89.9606 0.701172 91.3139 1.27284 92.2473 2.41617C93.2039 3.53617 93.6823 5.57784 93.6823 8.54117ZM90.9173 18.9362V8.01617C90.9173 4.65617 90.0189 2.97617 88.2223 2.97617C87.3589 2.97617 86.6823 3.33784 86.1923 4.06117C85.7256 4.78451 85.4923 6.10284 85.4923 8.01617V18.9362C85.4923 20.8495 85.7256 22.1678 86.1923 22.8912C86.6823 23.6145 87.3589 23.9762 88.2223 23.9762C90.0189 23.9762 90.9173 22.2962 90.9173 18.9362Z" fill="#888973"></path><path d="M93.6823 8.54117V18.4112C93.6823 21.3745 93.2039 23.4278 92.2473 24.5712C91.3139 25.6912 89.9606 26.2512 88.1873 26.2512C86.4373 26.2512 85.0839 25.6912 84.1273 24.5712C83.1939 23.4278 82.7273 21.3745 82.7273 18.4112V8.54117C82.7273 5.57784 83.1939 3.53617 84.1273 2.41617C85.0839 1.27284 86.4373 0.701172 88.1873 0.701172C89.9606 0.701172 91.3139 1.27284 92.2473 2.41617C93.2039 3.53617 93.6823 5.57784 93.6823 8.54117ZM90.9173 18.9362V8.01617C90.9173 4.65617 90.0189 2.97617 88.2223 2.97617C87.3589 2.97617 86.6823 3.33784 86.1923 4.06117C85.7256 4.78451 85.4923 6.10284 85.4923 8.01617V18.9362C85.4923 20.8495 85.7256 22.1678 86.1923 22.8912C86.6823 23.6145 87.3589 23.9762 88.2223 23.9762C90.0189 23.9762 90.9173 22.2962 90.9173 18.9362Z" fill="#888973"></path><path d="M97.6069 25.7262V1.22617H102.367C104.14 1.22617 105.505 1.79784 106.462 2.94117C107.419 4.06117 107.897 6.10284 107.897 9.06617V17.8862C107.897 20.8495 107.419 22.9028 106.462 24.0462C105.505 25.1662 104.14 25.7262 102.367 25.7262H97.6069ZM105.132 18.5162V8.47117C105.132 5.13451 104.21 3.46617 102.367 3.46617H100.407V23.5212H102.367C104.21 23.5212 105.132 21.8528 105.132 18.5162Z" fill="#888973"></path><path d="M97.6069 25.7262V1.22617H102.367C104.14 1.22617 105.505 1.79784 106.462 2.94117C107.419 4.06117 107.897 6.10284 107.897 9.06617V17.8862C107.897 20.8495 107.419 22.9028 106.462 24.0462C105.505 25.1662 104.14 25.7262 102.367 25.7262H97.6069ZM105.132 18.5162V8.47117C105.132 5.13451 104.21 3.46617 102.367 3.46617H100.407V23.5212H102.367C104.21 23.5212 105.132 21.8528 105.132 18.5162Z" fill="#888973"></path><path d="M119.58 25.7262H116.85V1.22617H121.12L124.095 18.2012L127.105 1.22617H131.375V25.7262H128.645V3.60617L125.67 20.4762H122.555L119.58 3.60617V25.7262Z" fill="#888973"></path><path d="M119.58 25.7262H116.85V1.22617H121.12L124.095 18.2012L127.105 1.22617H131.375V25.7262H128.645V3.60617L125.67 20.4762H122.555L119.58 3.60617V25.7262Z" fill="#888973"></path><path d="M144.011 25.7262L142.926 19.3562H137.991L136.941 25.7262H134.141L138.621 1.22617H142.331L146.811 25.7262H144.011ZM140.476 4.76117L138.376 17.1162H142.541L140.476 4.76117Z" fill="#888973"></path><path d="M144.011 25.7262L142.926 19.3562H137.991L136.941 25.7262H134.141L138.621 1.22617H142.331L146.811 25.7262H144.011ZM140.476 4.76117L138.376 17.1162H142.541L140.476 4.76117Z" fill="#888973"></path><path d="M154.18 14.9812V12.7412H159.675V25.6912H157.96L157.47 23.4162C156.77 25.3062 155.51 26.2512 153.69 26.2512C152.22 26.2512 151.077 25.6912 150.26 24.5712C149.467 23.4278 149.07 21.3745 149.07 18.4112V8.71617C149.07 5.65951 149.537 3.55951 150.47 2.41617C151.403 1.27284 152.652 0.701172 154.215 0.701172C155.802 0.701172 157.003 1.10951 157.82 1.92617C158.66 2.74284 159.173 4.20117 159.36 6.30117L156.805 6.93117C156.665 5.43784 156.397 4.41117 156 3.85117C155.627 3.26784 155.055 2.97617 154.285 2.97617C153.538 2.97617 152.943 3.34951 152.5 4.09617C152.057 4.81951 151.835 6.16117 151.835 8.12117V18.9362C151.835 20.8495 152.045 22.1678 152.465 22.8912C152.908 23.6145 153.527 23.9762 154.32 23.9762C156.093 23.9762 157.003 22.4012 157.05 19.2512V14.9812H154.18Z" fill="#888973"></path><path d="M154.18 14.9812V12.7412H159.675V25.6912H157.96L157.47 23.4162C156.77 25.3062 155.51 26.2512 153.69 26.2512C152.22 26.2512 151.077 25.6912 150.26 24.5712C149.467 23.4278 149.07 21.3745 149.07 18.4112V8.71617C149.07 5.65951 149.537 3.55951 150.47 2.41617C151.403 1.27284 152.652 0.701172 154.215 0.701172C155.802 0.701172 157.003 1.10951 157.82 1.92617C158.66 2.74284 159.173 4.20117 159.36 6.30117L156.805 6.93117C156.665 5.43784 156.397 4.41117 156 3.85117C155.627 3.26784 155.055 2.97617 154.285 2.97617C153.538 2.97617 152.943 3.34951 152.5 4.09617C152.057 4.81951 151.835 6.16117 151.835 8.12117V18.9362C151.835 20.8495 152.045 22.1678 152.465 22.8912C152.908 23.6145 153.527 23.9762 154.32 23.9762C156.093 23.9762 157.003 22.4012 157.05 19.2512V14.9812H154.18Z" fill="#888973"></path><path d="M172.072 25.7262L170.987 19.3562H166.052L165.002 25.7262H162.202L166.682 1.22617H170.392L174.872 25.7262H172.072ZM168.537 4.76117L166.437 17.1162H170.602L168.537 4.76117Z" fill="#888973"></path><path d="M172.072 25.7262L170.987 19.3562H166.052L165.002 25.7262H162.202L166.682 1.22617H170.392L174.872 25.7262H172.072ZM168.537 4.76117L166.437 17.1162H170.602L168.537 4.76117Z" fill="#888973"></path><path d="M176.222 25.7262V24.3962L183.992 3.46617H176.887V1.22617H186.897V2.55617L179.127 23.4862H186.897V25.7262H176.222Z" fill="#888973"></path><path d="M176.222 25.7262V24.3962L183.992 3.46617H176.887V1.22617H186.897V2.55617L179.127 23.4862H186.897V25.7262H176.222Z" fill="#888973"></path><path d="M189.892 25.7262V1.22617H192.692V25.7262H189.892Z" fill="#888973"></path><path d="M189.892 25.7262V1.22617H192.692V25.7262H189.892Z" fill="#888973"></path><path d="M199.834 25.7262H197.104V1.22617H200.009L205.714 19.1462V1.22617H208.444V25.7262H205.539L199.834 7.84117V25.7262Z" fill="#888973"></path><path d="M199.834 25.7262H197.104V1.22617H200.009L205.714 19.1462V1.22617H208.444V25.7262H205.539L199.834 7.84117V25.7262Z" fill="#888973"></path><path d="M215.661 14.6312V23.4862H221.751V25.7262H212.861V1.22617H221.646V3.46617H215.661V12.3912H221.121V14.6312H215.661Z" fill="#888973"></path><path d="M215.661 14.6312V23.4862H221.751V25.7262H212.861V1.22617H221.646V3.46617H215.661V12.3912H221.121V14.6312H215.661Z" fill="#888973"></path></svg>