<svg xmlns="http://www.w3.org/2000/svg" width="114" height="32" viewBox="0 0 114 32" fill="none"><path d="M7.71008 31.4467C6.45008 31.4467 5.28008 31.2517 4.20008 30.8617C3.15008 30.5017 2.20508 29.9767 1.36508 29.2867C1.24508 29.1667 1.12508 29.0317 1.00508 28.8817C0.915078 28.7317 0.840078 28.5667 0.780078 28.3867C0.630078 27.7867 0.525078 27.0067 0.465078 26.0467C0.435078 25.0867 0.390078 24.2917 0.330078 23.6617C0.330078 23.4517 0.420078 23.3017 0.600078 23.2117C0.780078 23.0917 0.990079 23.0317 1.23008 23.0317C1.38008 23.0317 1.53008 23.0767 1.68008 23.1667C1.83008 23.2267 1.92008 23.3467 1.95008 23.5267C2.55008 25.8367 3.43508 27.4867 4.60508 28.4767C5.80508 29.4667 7.05008 29.9617 8.34008 29.9617C9.39008 29.9617 10.3201 29.7367 11.1301 29.2867C11.9401 28.8367 12.5701 28.2067 13.0201 27.3967C13.5001 26.5567 13.7401 25.5817 13.7401 24.4717C13.7401 23.2417 13.5301 22.2517 13.1101 21.5017C12.7201 20.7217 12.1501 20.0467 11.4001 19.4767C10.6501 18.9067 9.73508 18.2917 8.65508 17.6317C7.48508 16.8817 6.33008 16.1317 5.19008 15.3817C4.05008 14.6017 3.10508 13.7167 2.35508 12.7267C1.60508 11.7067 1.23008 10.4767 1.23008 9.03668C1.23008 7.50668 1.57508 6.12668 2.26508 4.89668C2.95508 3.66668 3.99008 2.69168 5.37008 1.97168C6.78008 1.22168 8.53508 0.84668 10.6351 0.84668C11.7151 0.84668 12.6451 0.96668 13.4251 1.20668C14.2351 1.41668 14.8801 1.62668 15.3601 1.83668C15.6001 1.92668 15.7951 2.07668 15.9451 2.28668C16.1251 2.49668 16.2451 2.72168 16.3051 2.96168C16.4851 3.59168 16.6801 4.31168 16.8901 5.12168C17.1001 5.93168 17.2051 6.69668 17.2051 7.41668C17.2051 7.74668 16.9801 7.91168 16.5301 7.91168C16.2601 7.91168 15.9901 7.85168 15.7201 7.73168C15.4801 7.61168 15.3301 7.46168 15.2701 7.28168C14.6401 5.69168 13.9051 4.47668 13.0651 3.63668C12.2251 2.79668 11.1601 2.37668 9.87008 2.37668C8.97008 2.37668 8.13008 2.54168 7.35008 2.87168C6.57008 3.20168 5.92508 3.74168 5.41508 4.49168C4.93508 5.24168 4.69508 6.24668 4.69508 7.50668C4.69508 8.40668 4.98008 9.23168 5.55008 9.98168C6.15008 10.7017 6.93008 11.3917 7.89008 12.0517C8.85008 12.7117 9.88508 13.3867 10.9951 14.0767C12.0451 14.7067 13.0651 15.3967 14.0551 16.1467C15.0751 16.8967 15.9001 17.7967 16.5301 18.8467C17.1901 19.8667 17.5201 21.1267 17.5201 22.6267C17.5201 24.3967 17.1151 25.9567 16.3051 27.3067C15.4951 28.6267 14.3551 29.6467 12.8851 30.3667C11.4151 31.0867 9.69008 31.4467 7.71008 31.4467Z" fill="#888973"></path><path d="M7.71008 31.4467C6.45008 31.4467 5.28008 31.2517 4.20008 30.8617C3.15008 30.5017 2.20508 29.9767 1.36508 29.2867C1.24508 29.1667 1.12508 29.0317 1.00508 28.8817C0.915078 28.7317 0.840078 28.5667 0.780078 28.3867C0.630078 27.7867 0.525078 27.0067 0.465078 26.0467C0.435078 25.0867 0.390078 24.2917 0.330078 23.6617C0.330078 23.4517 0.420078 23.3017 0.600078 23.2117C0.780078 23.0917 0.990079 23.0317 1.23008 23.0317C1.38008 23.0317 1.53008 23.0767 1.68008 23.1667C1.83008 23.2267 1.92008 23.3467 1.95008 23.5267C2.55008 25.8367 3.43508 27.4867 4.60508 28.4767C5.80508 29.4667 7.05008 29.9617 8.34008 29.9617C9.39008 29.9617 10.3201 29.7367 11.1301 29.2867C11.9401 28.8367 12.5701 28.2067 13.0201 27.3967C13.5001 26.5567 13.7401 25.5817 13.7401 24.4717C13.7401 23.2417 13.5301 22.2517 13.1101 21.5017C12.7201 20.7217 12.1501 20.0467 11.4001 19.4767C10.6501 18.9067 9.73508 18.2917 8.65508 17.6317C7.48508 16.8817 6.33008 16.1317 5.19008 15.3817C4.05008 14.6017 3.10508 13.7167 2.35508 12.7267C1.60508 11.7067 1.23008 10.4767 1.23008 9.03668C1.23008 7.50668 1.57508 6.12668 2.26508 4.89668C2.95508 3.66668 3.99008 2.69168 5.37008 1.97168C6.78008 1.22168 8.53508 0.84668 10.6351 0.84668C11.7151 0.84668 12.6451 0.96668 13.4251 1.20668C14.2351 1.41668 14.8801 1.62668 15.3601 1.83668C15.6001 1.92668 15.7951 2.07668 15.9451 2.28668C16.1251 2.49668 16.2451 2.72168 16.3051 2.96168C16.4851 3.59168 16.6801 4.31168 16.8901 5.12168C17.1001 5.93168 17.2051 6.69668 17.2051 7.41668C17.2051 7.74668 16.9801 7.91168 16.5301 7.91168C16.2601 7.91168 15.9901 7.85168 15.7201 7.73168C15.4801 7.61168 15.3301 7.46168 15.2701 7.28168C14.6401 5.69168 13.9051 4.47668 13.0651 3.63668C12.2251 2.79668 11.1601 2.37668 9.87008 2.37668C8.97008 2.37668 8.13008 2.54168 7.35008 2.87168C6.57008 3.20168 5.92508 3.74168 5.41508 4.49168C4.93508 5.24168 4.69508 6.24668 4.69508 7.50668C4.69508 8.40668 4.98008 9.23168 5.55008 9.98168C6.15008 10.7017 6.93008 11.3917 7.89008 12.0517C8.85008 12.7117 9.88508 13.3867 10.9951 14.0767C12.0451 14.7067 13.0651 15.3967 14.0551 16.1467C15.0751 16.8967 15.9001 17.7967 16.5301 18.8467C17.1901 19.8667 17.5201 21.1267 17.5201 22.6267C17.5201 24.3967 17.1151 25.9567 16.3051 27.3067C15.4951 28.6267 14.3551 29.6467 12.8851 30.3667C11.4151 31.0867 9.69008 31.4467 7.71008 31.4467Z" fill="#888973"></path><path d="M21.698 30.8617C21.548 30.8617 21.353 30.8167 21.113 30.7267C20.903 30.6367 20.798 30.5017 20.798 30.3217C20.798 30.0817 20.918 29.9167 21.158 29.8267C21.398 29.7067 21.638 29.6317 21.878 29.6017C22.658 29.4517 23.348 29.2117 23.948 28.8817C24.548 28.5517 24.848 27.9817 24.848 27.1717V14.8867C24.848 13.9867 24.653 13.2817 24.263 12.7717C23.873 12.2317 23.198 11.8867 22.238 11.7367C21.968 11.6767 21.713 11.5717 21.473 11.4217C21.2631 11.2717 21.158 11.0917 21.158 10.8817C21.158 10.7017 21.2631 10.5667 21.473 10.4767C21.713 10.3867 21.908 10.3417 22.058 10.3417C22.658 10.3417 23.183 10.3567 23.633 10.3867C24.113 10.4167 24.578 10.4617 25.028 10.5217C25.508 10.5517 26.018 10.5667 26.558 10.5667C27.098 10.5667 27.593 10.5517 28.043 10.5217C28.493 10.4617 28.958 10.4167 29.438 10.3867C29.918 10.3567 30.443 10.3417 31.013 10.3417C31.163 10.3417 31.343 10.3867 31.553 10.4767C31.793 10.5667 31.913 10.7017 31.913 10.8817C31.913 11.0917 31.793 11.2717 31.553 11.4217C31.343 11.5717 31.1031 11.6767 30.833 11.7367C29.903 11.8867 29.228 12.2317 28.808 12.7717C28.418 13.2817 28.223 13.9867 28.223 14.8867V19.1167C28.223 19.2967 28.3731 19.3867 28.673 19.3867C29.813 19.3867 30.713 19.4017 31.373 19.4317C32.033 19.4617 32.813 19.4767 33.713 19.4767C34.493 19.4767 35.363 19.4617 36.323 19.4317C37.283 19.4017 38.258 19.3867 39.2481 19.3867C39.3981 19.3867 39.473 19.2667 39.473 19.0267V14.8867C39.473 14.0167 39.278 13.3117 38.888 12.7717C38.498 12.2317 37.823 11.8867 36.863 11.7367C36.593 11.6767 36.3381 11.5717 36.098 11.4217C35.8881 11.2717 35.783 11.0917 35.783 10.8817C35.783 10.7017 35.8881 10.5667 36.098 10.4767C36.3381 10.3867 36.533 10.3417 36.683 10.3417C37.283 10.3417 37.808 10.3567 38.258 10.3867C38.738 10.4167 39.203 10.4617 39.653 10.5217C40.133 10.5517 40.643 10.5667 41.183 10.5667C41.723 10.5667 42.218 10.5517 42.668 10.5217C43.118 10.4617 43.583 10.4167 44.063 10.3867C44.543 10.3567 45.0681 10.3417 45.6381 10.3417C45.7881 10.3417 45.9681 10.3867 46.1781 10.4767C46.4181 10.5667 46.5381 10.7017 46.5381 10.8817C46.5381 11.0917 46.4181 11.2717 46.1781 11.4217C45.9681 11.5717 45.7281 11.6767 45.458 11.7367C44.528 11.8867 43.853 12.2317 43.433 12.7717C43.043 13.3117 42.848 14.0167 42.848 14.8867V27.1717C42.848 27.9817 43.148 28.5517 43.748 28.8817C44.348 29.2117 45.038 29.4517 45.8181 29.6017C46.0581 29.6317 46.298 29.7067 46.5381 29.8267C46.778 29.9167 46.898 30.0817 46.898 30.3217C46.898 30.5017 46.778 30.6367 46.5381 30.7267C46.3281 30.8167 46.1481 30.8617 45.9981 30.8617C45.4281 30.8617 44.8881 30.8317 44.378 30.7717C43.898 30.7417 43.403 30.7117 42.893 30.6817C42.383 30.6217 41.813 30.5917 41.183 30.5917C40.553 30.5917 39.983 30.6217 39.473 30.6817C38.9631 30.7117 38.453 30.7417 37.943 30.7717C37.463 30.8317 36.923 30.8617 36.323 30.8617C36.173 30.8617 35.978 30.8167 35.738 30.7267C35.528 30.6367 35.423 30.5017 35.423 30.3217C35.423 30.0817 35.543 29.9167 35.783 29.8267C36.023 29.7067 36.2631 29.6317 36.503 29.6017C37.2831 29.4517 37.973 29.2117 38.573 28.8817C39.173 28.5517 39.473 27.9817 39.473 27.1717V21.1867C39.473 21.0367 39.413 20.9617 39.293 20.9617C38.093 20.9617 37.073 20.9467 36.233 20.9167C35.423 20.8867 34.538 20.8717 33.578 20.8717C32.798 20.8717 31.988 20.8867 31.148 20.9167C30.308 20.9467 29.378 20.9617 28.358 20.9617C28.268 20.9617 28.223 21.0667 28.223 21.2767V27.1717C28.223 27.9817 28.523 28.5517 29.123 28.8817C29.723 29.2117 30.413 29.4517 31.193 29.6017C31.433 29.6317 31.673 29.7067 31.913 29.8267C32.153 29.9167 32.273 30.0817 32.273 30.3217C32.273 30.5017 32.153 30.6367 31.913 30.7267C31.703 30.8167 31.523 30.8617 31.373 30.8617C30.803 30.8617 30.263 30.8317 29.753 30.7717C29.273 30.7417 28.778 30.7117 28.268 30.6817C27.758 30.6217 27.188 30.5917 26.558 30.5917C25.928 30.5917 25.358 30.6217 24.848 30.6817C24.338 30.7117 23.828 30.7417 23.318 30.7717C22.838 30.8317 22.298 30.8617 21.698 30.8617Z" fill="#888973"></path><path d="M21.698 30.8617C21.548 30.8617 21.353 30.8167 21.113 30.7267C20.903 30.6367 20.798 30.5017 20.798 30.3217C20.798 30.0817 20.918 29.9167 21.158 29.8267C21.398 29.7067 21.638 29.6317 21.878 29.6017C22.658 29.4517 23.348 29.2117 23.948 28.8817C24.548 28.5517 24.848 27.9817 24.848 27.1717V14.8867C24.848 13.9867 24.653 13.2817 24.263 12.7717C23.873 12.2317 23.198 11.8867 22.238 11.7367C21.968 11.6767 21.713 11.5717 21.473 11.4217C21.2631 11.2717 21.158 11.0917 21.158 10.8817C21.158 10.7017 21.2631 10.5667 21.473 10.4767C21.713 10.3867 21.908 10.3417 22.058 10.3417C22.658 10.3417 23.183 10.3567 23.633 10.3867C24.113 10.4167 24.578 10.4617 25.028 10.5217C25.508 10.5517 26.018 10.5667 26.558 10.5667C27.098 10.5667 27.593 10.5517 28.043 10.5217C28.493 10.4617 28.958 10.4167 29.438 10.3867C29.918 10.3567 30.443 10.3417 31.013 10.3417C31.163 10.3417 31.343 10.3867 31.553 10.4767C31.793 10.5667 31.913 10.7017 31.913 10.8817C31.913 11.0917 31.793 11.2717 31.553 11.4217C31.343 11.5717 31.1031 11.6767 30.833 11.7367C29.903 11.8867 29.228 12.2317 28.808 12.7717C28.418 13.2817 28.223 13.9867 28.223 14.8867V19.1167C28.223 19.2967 28.3731 19.3867 28.673 19.3867C29.813 19.3867 30.713 19.4017 31.373 19.4317C32.033 19.4617 32.813 19.4767 33.713 19.4767C34.493 19.4767 35.363 19.4617 36.323 19.4317C37.283 19.4017 38.258 19.3867 39.2481 19.3867C39.3981 19.3867 39.473 19.2667 39.473 19.0267V14.8867C39.473 14.0167 39.278 13.3117 38.888 12.7717C38.498 12.2317 37.823 11.8867 36.863 11.7367C36.593 11.6767 36.3381 11.5717 36.098 11.4217C35.8881 11.2717 35.783 11.0917 35.783 10.8817C35.783 10.7017 35.8881 10.5667 36.098 10.4767C36.3381 10.3867 36.533 10.3417 36.683 10.3417C37.283 10.3417 37.808 10.3567 38.258 10.3867C38.738 10.4167 39.203 10.4617 39.653 10.5217C40.133 10.5517 40.643 10.5667 41.183 10.5667C41.723 10.5667 42.218 10.5517 42.668 10.5217C43.118 10.4617 43.583 10.4167 44.063 10.3867C44.543 10.3567 45.0681 10.3417 45.6381 10.3417C45.7881 10.3417 45.9681 10.3867 46.1781 10.4767C46.4181 10.5667 46.5381 10.7017 46.5381 10.8817C46.5381 11.0917 46.4181 11.2717 46.1781 11.4217C45.9681 11.5717 45.7281 11.6767 45.458 11.7367C44.528 11.8867 43.853 12.2317 43.433 12.7717C43.043 13.3117 42.848 14.0167 42.848 14.8867V27.1717C42.848 27.9817 43.148 28.5517 43.748 28.8817C44.348 29.2117 45.038 29.4517 45.8181 29.6017C46.0581 29.6317 46.298 29.7067 46.5381 29.8267C46.778 29.9167 46.898 30.0817 46.898 30.3217C46.898 30.5017 46.778 30.6367 46.5381 30.7267C46.3281 30.8167 46.1481 30.8617 45.9981 30.8617C45.4281 30.8617 44.8881 30.8317 44.378 30.7717C43.898 30.7417 43.403 30.7117 42.893 30.6817C42.383 30.6217 41.813 30.5917 41.183 30.5917C40.553 30.5917 39.983 30.6217 39.473 30.6817C38.9631 30.7117 38.453 30.7417 37.943 30.7717C37.463 30.8317 36.923 30.8617 36.323 30.8617C36.173 30.8617 35.978 30.8167 35.738 30.7267C35.528 30.6367 35.423 30.5017 35.423 30.3217C35.423 30.0817 35.543 29.9167 35.783 29.8267C36.023 29.7067 36.2631 29.6317 36.503 29.6017C37.2831 29.4517 37.973 29.2117 38.573 28.8817C39.173 28.5517 39.473 27.9817 39.473 27.1717V21.1867C39.473 21.0367 39.413 20.9617 39.293 20.9617C38.093 20.9617 37.073 20.9467 36.233 20.9167C35.423 20.8867 34.538 20.8717 33.578 20.8717C32.798 20.8717 31.988 20.8867 31.148 20.9167C30.308 20.9467 29.378 20.9617 28.358 20.9617C28.268 20.9617 28.223 21.0667 28.223 21.2767V27.1717C28.223 27.9817 28.523 28.5517 29.123 28.8817C29.723 29.2117 30.413 29.4517 31.193 29.6017C31.433 29.6317 31.673 29.7067 31.913 29.8267C32.153 29.9167 32.273 30.0817 32.273 30.3217C32.273 30.5017 32.153 30.6367 31.913 30.7267C31.703 30.8167 31.523 30.8617 31.373 30.8617C30.803 30.8617 30.263 30.8317 29.753 30.7717C29.273 30.7417 28.778 30.7117 28.268 30.6817C27.758 30.6217 27.188 30.5917 26.558 30.5917C25.928 30.5917 25.358 30.6217 24.848 30.6817C24.338 30.7117 23.828 30.7417 23.318 30.7717C22.838 30.8317 22.298 30.8617 21.698 30.8617Z" fill="#888973"></path><path d="M62.8572 30.8617C62.7072 30.8617 62.5122 30.8167 62.2722 30.7267C62.0622 30.6367 61.9572 30.5017 61.9572 30.3217C61.9572 30.0817 62.0622 29.9017 62.2722 29.7817C62.5122 29.6617 62.7522 29.5717 62.9922 29.5117C63.8022 29.2717 64.3272 29.0167 64.5672 28.7467C64.8072 28.4467 64.8072 27.9367 64.5672 27.2167L63.8022 24.7867C63.7722 24.6367 63.6972 24.5467 63.5772 24.5167C63.4872 24.4867 63.2772 24.4717 62.9472 24.4717H56.1972C56.0172 24.4717 55.8672 24.5167 55.7472 24.6067C55.6572 24.6667 55.5672 24.8017 55.4772 25.0117C55.1172 25.7917 54.8772 26.3617 54.7572 26.7217C54.6372 27.0817 54.5772 27.4417 54.5772 27.8017C54.5772 28.3717 54.7422 28.7617 55.0722 28.9717C55.4022 29.1817 55.7922 29.3617 56.2422 29.5117C56.4822 29.6017 56.7072 29.7067 56.9172 29.8267C57.1572 29.9167 57.2772 30.0817 57.2772 30.3217C57.2772 30.5017 57.1572 30.6367 56.9172 30.7267C56.7072 30.8167 56.5272 30.8617 56.3772 30.8617C55.8072 30.8617 55.3422 30.8317 54.9822 30.7717C54.6522 30.7417 54.3222 30.7117 53.9922 30.6817C53.6922 30.6517 53.2872 30.6367 52.7772 30.6367C52.2672 30.6367 51.8622 30.6517 51.5622 30.6817C51.2922 30.7117 51.0072 30.7417 50.7072 30.7717C50.4072 30.8317 49.9572 30.8617 49.3572 30.8617C49.2072 30.8617 49.0122 30.8167 48.7722 30.7267C48.5622 30.6367 48.4572 30.5017 48.4572 30.3217C48.4572 30.0817 48.5622 29.9167 48.7722 29.8267C49.0122 29.7067 49.2522 29.6167 49.4922 29.5567C49.9722 29.4367 50.4072 29.3167 50.7972 29.1967C51.2172 29.0467 51.6222 28.7917 52.0122 28.4317C52.4022 28.0417 52.7772 27.4267 53.1372 26.5867L58.3572 14.5267C58.6872 13.7767 58.8372 13.2367 58.8072 12.9067C58.8072 12.5467 58.8372 12.3367 58.8972 12.2767C59.0472 12.1267 59.2422 11.9317 59.4822 11.6917C59.7222 11.4517 59.9472 11.2117 60.1572 10.9717C60.3972 10.7017 60.5622 10.5217 60.6522 10.4317C60.8322 10.2217 60.9822 10.0867 61.1022 10.0267C61.2222 9.93668 61.3122 9.89168 61.3722 9.89168C61.4622 9.89168 61.5222 9.92168 61.5522 9.98168C61.6122 10.0417 61.6572 10.1467 61.6872 10.2967L67.7622 25.9117C68.0622 26.6617 68.4222 27.4117 68.8422 28.1617C69.2922 28.8817 69.9672 29.3317 70.8672 29.5117C71.1072 29.5417 71.3322 29.6317 71.5422 29.7817C71.7822 29.9017 71.9022 30.0817 71.9022 30.3217C71.9022 30.5017 71.7822 30.6367 71.5422 30.7267C71.3322 30.8167 71.1522 30.8617 71.0022 30.8617C70.1322 30.8617 69.4422 30.8167 68.9322 30.7267C68.4522 30.6667 67.8222 30.6367 67.0422 30.6367C66.5322 30.6367 66.0672 30.6517 65.6472 30.6817C65.2272 30.7117 64.8072 30.7417 64.3872 30.7717C63.9672 30.8317 63.4572 30.8617 62.8572 30.8617ZM57.1422 22.8517H62.5422C62.7822 22.8517 62.9172 22.8367 62.9472 22.8067C62.9772 22.7467 62.9622 22.6117 62.9022 22.4017C62.8122 22.1017 62.6472 21.6367 62.4072 21.0067C62.1672 20.3467 61.8972 19.6567 61.5972 18.9367C61.2972 18.1867 61.0122 17.4817 60.7422 16.8217C60.5022 16.1617 60.3072 15.6517 60.1572 15.2917C60.0372 14.9617 59.9322 14.7967 59.8422 14.7967C59.7822 14.7967 59.6772 14.9617 59.5272 15.2917C59.1372 16.2217 58.6572 17.3617 58.0872 18.7117C57.5172 20.0617 57.0072 21.2917 56.5572 22.4017C56.4672 22.6117 56.4672 22.7467 56.5572 22.8067C56.6772 22.8367 56.8722 22.8517 57.1422 22.8517Z" fill="#888973"></path><path d="M62.8572 30.8617C62.7072 30.8617 62.5122 30.8167 62.2722 30.7267C62.0622 30.6367 61.9572 30.5017 61.9572 30.3217C61.9572 30.0817 62.0622 29.9017 62.2722 29.7817C62.5122 29.6617 62.7522 29.5717 62.9922 29.5117C63.8022 29.2717 64.3272 29.0167 64.5672 28.7467C64.8072 28.4467 64.8072 27.9367 64.5672 27.2167L63.8022 24.7867C63.7722 24.6367 63.6972 24.5467 63.5772 24.5167C63.4872 24.4867 63.2772 24.4717 62.9472 24.4717H56.1972C56.0172 24.4717 55.8672 24.5167 55.7472 24.6067C55.6572 24.6667 55.5672 24.8017 55.4772 25.0117C55.1172 25.7917 54.8772 26.3617 54.7572 26.7217C54.6372 27.0817 54.5772 27.4417 54.5772 27.8017C54.5772 28.3717 54.7422 28.7617 55.0722 28.9717C55.4022 29.1817 55.7922 29.3617 56.2422 29.5117C56.4822 29.6017 56.7072 29.7067 56.9172 29.8267C57.1572 29.9167 57.2772 30.0817 57.2772 30.3217C57.2772 30.5017 57.1572 30.6367 56.9172 30.7267C56.7072 30.8167 56.5272 30.8617 56.3772 30.8617C55.8072 30.8617 55.3422 30.8317 54.9822 30.7717C54.6522 30.7417 54.3222 30.7117 53.9922 30.6817C53.6922 30.6517 53.2872 30.6367 52.7772 30.6367C52.2672 30.6367 51.8622 30.6517 51.5622 30.6817C51.2922 30.7117 51.0072 30.7417 50.7072 30.7717C50.4072 30.8317 49.9572 30.8617 49.3572 30.8617C49.2072 30.8617 49.0122 30.8167 48.7722 30.7267C48.5622 30.6367 48.4572 30.5017 48.4572 30.3217C48.4572 30.0817 48.5622 29.9167 48.7722 29.8267C49.0122 29.7067 49.2522 29.6167 49.4922 29.5567C49.9722 29.4367 50.4072 29.3167 50.7972 29.1967C51.2172 29.0467 51.6222 28.7917 52.0122 28.4317C52.4022 28.0417 52.7772 27.4267 53.1372 26.5867L58.3572 14.5267C58.6872 13.7767 58.8372 13.2367 58.8072 12.9067C58.8072 12.5467 58.8372 12.3367 58.8972 12.2767C59.0472 12.1267 59.2422 11.9317 59.4822 11.6917C59.7222 11.4517 59.9472 11.2117 60.1572 10.9717C60.3972 10.7017 60.5622 10.5217 60.6522 10.4317C60.8322 10.2217 60.9822 10.0867 61.1022 10.0267C61.2222 9.93668 61.3122 9.89168 61.3722 9.89168C61.4622 9.89168 61.5222 9.92168 61.5522 9.98168C61.6122 10.0417 61.6572 10.1467 61.6872 10.2967L67.7622 25.9117C68.0622 26.6617 68.4222 27.4117 68.8422 28.1617C69.2922 28.8817 69.9672 29.3317 70.8672 29.5117C71.1072 29.5417 71.3322 29.6317 71.5422 29.7817C71.7822 29.9017 71.9022 30.0817 71.9022 30.3217C71.9022 30.5017 71.7822 30.6367 71.5422 30.7267C71.3322 30.8167 71.1522 30.8617 71.0022 30.8617C70.1322 30.8617 69.4422 30.8167 68.9322 30.7267C68.4522 30.6667 67.8222 30.6367 67.0422 30.6367C66.5322 30.6367 66.0672 30.6517 65.6472 30.6817C65.2272 30.7117 64.8072 30.7417 64.3872 30.7717C63.9672 30.8317 63.4572 30.8617 62.8572 30.8617ZM57.1422 22.8517H62.5422C62.7822 22.8517 62.9172 22.8367 62.9472 22.8067C62.9772 22.7467 62.9622 22.6117 62.9022 22.4017C62.8122 22.1017 62.6472 21.6367 62.4072 21.0067C62.1672 20.3467 61.8972 19.6567 61.5972 18.9367C61.2972 18.1867 61.0122 17.4817 60.7422 16.8217C60.5022 16.1617 60.3072 15.6517 60.1572 15.2917C60.0372 14.9617 59.9322 14.7967 59.8422 14.7967C59.7822 14.7967 59.6772 14.9617 59.5272 15.2917C59.1372 16.2217 58.6572 17.3617 58.0872 18.7117C57.5172 20.0617 57.0072 21.2917 56.5572 22.4017C56.4672 22.6117 56.4672 22.7467 56.5572 22.8067C56.6772 22.8367 56.8722 22.8517 57.1422 22.8517Z" fill="#888973"></path><path d="M74.9598 30.8617C74.8098 30.8617 74.6148 30.8167 74.3748 30.7267C74.1648 30.6367 74.0598 30.5017 74.0598 30.3217C74.0598 30.0817 74.1798 29.9167 74.4198 29.8267C74.6598 29.7067 74.8998 29.6317 75.1398 29.6017C75.9198 29.4517 76.6098 29.2117 77.2098 28.8817C77.8098 28.5517 78.1098 27.9817 78.1098 27.1717V14.8867C78.1098 13.9567 77.9148 13.2367 77.5248 12.7267C77.1348 12.2167 76.4598 11.8867 75.4998 11.7367C75.2298 11.6767 74.9748 11.5717 74.7348 11.4217C74.5248 11.2717 74.4198 11.0917 74.4198 10.8817C74.4198 10.7017 74.5248 10.5667 74.7348 10.4767C74.9748 10.3867 75.1698 10.3417 75.3198 10.3417C75.9198 10.3417 76.4298 10.3567 76.8498 10.3867C77.2698 10.4167 77.6898 10.4617 78.1098 10.5217C78.5298 10.5517 78.9948 10.5667 79.5048 10.5667C79.9248 10.5667 80.3748 10.5517 80.8548 10.5217C81.3648 10.4617 81.9048 10.4167 82.4748 10.3867C83.0448 10.3567 83.6298 10.3417 84.2298 10.3417C85.5498 10.3417 86.7798 10.5217 87.9198 10.8817C89.0898 11.2417 90.0348 11.8267 90.7548 12.6367C91.4748 13.4467 91.8348 14.5117 91.8348 15.8317C91.8348 17.8417 91.2348 19.4467 90.0348 20.6467C88.8348 21.8167 87.2148 22.4017 85.1748 22.4017C84.8748 22.4017 84.5148 22.3417 84.0948 22.2217C83.7048 22.0717 83.5098 21.8617 83.5098 21.5917C83.5098 21.4417 83.5548 21.3067 83.6448 21.1867C83.7648 21.0367 83.9448 20.9617 84.1848 20.9617C84.3948 20.9617 84.5898 20.9767 84.7698 21.0067C84.9798 21.0367 85.1448 21.0517 85.2648 21.0517C86.1048 21.0517 86.7948 20.6167 87.3348 19.7467C87.8748 18.8467 88.1448 17.8567 88.1448 16.7767C88.1448 15.3667 87.6948 14.1517 86.7948 13.1317C85.9248 12.0817 84.8148 11.5567 83.4648 11.5567C82.8948 11.5567 82.4148 11.6617 82.0248 11.8717C81.6648 12.0517 81.4848 12.3817 81.4848 12.8617V27.1717C81.4848 27.9817 81.7848 28.5517 82.3848 28.8817C82.9848 29.2117 83.6748 29.4517 84.4548 29.6017C84.6948 29.6317 84.9348 29.7067 85.1748 29.8267C85.4148 29.9167 85.5348 30.0817 85.5348 30.3217C85.5348 30.5017 85.4148 30.6367 85.1748 30.7267C84.9648 30.8167 84.7848 30.8617 84.6348 30.8617C84.0648 30.8617 83.5248 30.8317 83.0148 30.7717C82.5348 30.7417 82.0398 30.7117 81.5298 30.6817C81.0198 30.6217 80.4498 30.5917 79.8198 30.5917C79.1898 30.5917 78.6198 30.6217 78.1098 30.6817C77.5998 30.7117 77.0898 30.7417 76.5798 30.7717C76.0998 30.8317 75.5598 30.8617 74.9598 30.8617Z" fill="#888973"></path><path d="M74.9598 30.8617C74.8098 30.8617 74.6148 30.8167 74.3748 30.7267C74.1648 30.6367 74.0598 30.5017 74.0598 30.3217C74.0598 30.0817 74.1798 29.9167 74.4198 29.8267C74.6598 29.7067 74.8998 29.6317 75.1398 29.6017C75.9198 29.4517 76.6098 29.2117 77.2098 28.8817C77.8098 28.5517 78.1098 27.9817 78.1098 27.1717V14.8867C78.1098 13.9567 77.9148 13.2367 77.5248 12.7267C77.1348 12.2167 76.4598 11.8867 75.4998 11.7367C75.2298 11.6767 74.9748 11.5717 74.7348 11.4217C74.5248 11.2717 74.4198 11.0917 74.4198 10.8817C74.4198 10.7017 74.5248 10.5667 74.7348 10.4767C74.9748 10.3867 75.1698 10.3417 75.3198 10.3417C75.9198 10.3417 76.4298 10.3567 76.8498 10.3867C77.2698 10.4167 77.6898 10.4617 78.1098 10.5217C78.5298 10.5517 78.9948 10.5667 79.5048 10.5667C79.9248 10.5667 80.3748 10.5517 80.8548 10.5217C81.3648 10.4617 81.9048 10.4167 82.4748 10.3867C83.0448 10.3567 83.6298 10.3417 84.2298 10.3417C85.5498 10.3417 86.7798 10.5217 87.9198 10.8817C89.0898 11.2417 90.0348 11.8267 90.7548 12.6367C91.4748 13.4467 91.8348 14.5117 91.8348 15.8317C91.8348 17.8417 91.2348 19.4467 90.0348 20.6467C88.8348 21.8167 87.2148 22.4017 85.1748 22.4017C84.8748 22.4017 84.5148 22.3417 84.0948 22.2217C83.7048 22.0717 83.5098 21.8617 83.5098 21.5917C83.5098 21.4417 83.5548 21.3067 83.6448 21.1867C83.7648 21.0367 83.9448 20.9617 84.1848 20.9617C84.3948 20.9617 84.5898 20.9767 84.7698 21.0067C84.9798 21.0367 85.1448 21.0517 85.2648 21.0517C86.1048 21.0517 86.7948 20.6167 87.3348 19.7467C87.8748 18.8467 88.1448 17.8567 88.1448 16.7767C88.1448 15.3667 87.6948 14.1517 86.7948 13.1317C85.9248 12.0817 84.8148 11.5567 83.4648 11.5567C82.8948 11.5567 82.4148 11.6617 82.0248 11.8717C81.6648 12.0517 81.4848 12.3817 81.4848 12.8617V27.1717C81.4848 27.9817 81.7848 28.5517 82.3848 28.8817C82.9848 29.2117 83.6748 29.4517 84.4548 29.6017C84.6948 29.6317 84.9348 29.7067 85.1748 29.8267C85.4148 29.9167 85.5348 30.0817 85.5348 30.3217C85.5348 30.5017 85.4148 30.6367 85.1748 30.7267C84.9648 30.8167 84.7848 30.8617 84.6348 30.8617C84.0648 30.8617 83.5248 30.8317 83.0148 30.7717C82.5348 30.7417 82.0398 30.7117 81.5298 30.6817C81.0198 30.6217 80.4498 30.5917 79.8198 30.5917C79.1898 30.5917 78.6198 30.6217 78.1098 30.6817C77.5998 30.7117 77.0898 30.7417 76.5798 30.7717C76.0998 30.8317 75.5598 30.8617 74.9598 30.8617Z" fill="#888973"></path><path d="M96.0975 30.8617C95.9475 30.8617 95.7525 30.8167 95.5125 30.7267C95.3025 30.6367 95.1975 30.5017 95.1975 30.3217C95.1975 30.0817 95.3175 29.9167 95.5575 29.8267C95.7975 29.7067 96.0375 29.6317 96.2775 29.6017C97.0575 29.4517 97.7475 29.2117 98.3475 28.8817C98.9475 28.5517 99.2475 27.9817 99.2475 27.1717V14.8867C99.2475 13.9567 99.0525 13.2367 98.6625 12.7267C98.2725 12.2167 97.5975 11.8867 96.6375 11.7367C96.3675 11.6767 96.1125 11.5717 95.8725 11.4217C95.6625 11.2717 95.5575 11.0917 95.5575 10.8817C95.5575 10.7017 95.6625 10.5667 95.8725 10.4767C96.1125 10.3867 96.3075 10.3417 96.4575 10.3417C97.0575 10.3417 97.5675 10.3567 97.9875 10.3867C98.4075 10.4167 98.8275 10.4617 99.2475 10.5217C99.6675 10.5517 100.132 10.5667 100.642 10.5667C101.632 10.5667 102.622 10.5667 103.612 10.5667C104.632 10.5367 105.607 10.5217 106.537 10.5217C107.467 10.4917 108.322 10.4767 109.102 10.4767C109.882 10.4467 110.527 10.4317 111.037 10.4317C111.127 10.4317 111.232 10.4467 111.352 10.4767C111.502 10.5067 111.577 10.5817 111.577 10.7017C111.637 11.8417 111.727 12.7417 111.847 13.4017C111.967 14.0617 112.027 14.5417 112.027 14.8417C112.027 14.9317 111.982 15.0517 111.892 15.2017C111.832 15.3517 111.757 15.4267 111.667 15.4267C111.547 15.4267 111.397 15.3667 111.217 15.2467C111.067 15.0967 110.932 14.8867 110.812 14.6167C110.512 13.8667 110.182 13.2367 109.822 12.7267C109.462 12.2167 108.892 11.9617 108.112 11.9617H103.747C103.567 11.9617 103.327 12.0217 103.027 12.1417C102.757 12.2617 102.622 12.4717 102.622 12.7717V18.7567C102.622 18.9067 102.667 19.1317 102.757 19.4317C102.877 19.7017 102.997 19.8367 103.117 19.8367H106.672C107.152 19.8367 107.497 19.6867 107.707 19.3867C107.947 19.0567 108.157 18.6217 108.337 18.0817C108.397 17.9317 108.487 17.7667 108.607 17.5867C108.727 17.4067 108.862 17.3167 109.012 17.3167C109.192 17.3167 109.327 17.3917 109.417 17.5417C109.537 17.6917 109.582 17.8417 109.552 17.9917C109.522 18.3517 109.492 18.7717 109.462 19.2517C109.432 19.7317 109.417 20.1367 109.417 20.4667C109.417 20.8567 109.432 21.2617 109.462 21.6817C109.522 22.1017 109.567 22.5217 109.597 22.9417C109.627 23.0617 109.597 23.2267 109.507 23.4367C109.417 23.6167 109.297 23.7067 109.147 23.7067C108.877 23.7067 108.682 23.5567 108.562 23.2567C108.472 22.9267 108.397 22.7167 108.337 22.6267C108.217 22.1467 108.007 21.8317 107.707 21.6817C107.407 21.5017 107.137 21.3967 106.897 21.3667C106.447 21.3067 105.922 21.2767 105.322 21.2767C104.752 21.2767 104.227 21.2767 103.747 21.2767C103.327 21.2767 103.027 21.3067 102.847 21.3667C102.697 21.4267 102.622 21.6667 102.622 22.0867V27.2167C102.622 28.0267 102.697 28.5367 102.847 28.7467C103.027 28.9567 103.447 29.0617 104.107 29.0617H108.607C109.537 29.0617 110.317 28.7917 110.947 28.2517C111.577 27.7117 112.042 27.1117 112.342 26.4517C112.402 26.3617 112.462 26.2267 112.522 26.0467C112.612 25.8667 112.762 25.7767 112.972 25.7767C113.182 25.7767 113.302 25.8667 113.332 26.0467C113.392 26.1967 113.422 26.3467 113.422 26.4967C113.362 27.0967 113.257 27.7567 113.107 28.4767C112.957 29.1667 112.807 29.7667 112.657 30.2767C112.627 30.3967 112.522 30.5167 112.342 30.6367C112.192 30.7567 112.042 30.8167 111.892 30.8167C110.782 30.8167 109.702 30.8017 108.652 30.7717C107.632 30.7417 106.642 30.7267 105.682 30.7267C104.752 30.6967 103.852 30.6667 102.982 30.6367C102.112 30.6067 101.287 30.5917 100.507 30.5917C99.9675 30.5917 99.4725 30.6217 99.0225 30.6817C98.5725 30.7117 98.1225 30.7417 97.6725 30.7717C97.2225 30.8317 96.6975 30.8617 96.0975 30.8617Z" fill="#888973"></path><path d="M96.0975 30.8617C95.9475 30.8617 95.7525 30.8167 95.5125 30.7267C95.3025 30.6367 95.1975 30.5017 95.1975 30.3217C95.1975 30.0817 95.3175 29.9167 95.5575 29.8267C95.7975 29.7067 96.0375 29.6317 96.2775 29.6017C97.0575 29.4517 97.7475 29.2117 98.3475 28.8817C98.9475 28.5517 99.2475 27.9817 99.2475 27.1717V14.8867C99.2475 13.9567 99.0525 13.2367 98.6625 12.7267C98.2725 12.2167 97.5975 11.8867 96.6375 11.7367C96.3675 11.6767 96.1125 11.5717 95.8725 11.4217C95.6625 11.2717 95.5575 11.0917 95.5575 10.8817C95.5575 10.7017 95.6625 10.5667 95.8725 10.4767C96.1125 10.3867 96.3075 10.3417 96.4575 10.3417C97.0575 10.3417 97.5675 10.3567 97.9875 10.3867C98.4075 10.4167 98.8275 10.4617 99.2475 10.5217C99.6675 10.5517 100.132 10.5667 100.642 10.5667C101.632 10.5667 102.622 10.5667 103.612 10.5667C104.632 10.5367 105.607 10.5217 106.537 10.5217C107.467 10.4917 108.322 10.4767 109.102 10.4767C109.882 10.4467 110.527 10.4317 111.037 10.4317C111.127 10.4317 111.232 10.4467 111.352 10.4767C111.502 10.5067 111.577 10.5817 111.577 10.7017C111.637 11.8417 111.727 12.7417 111.847 13.4017C111.967 14.0617 112.027 14.5417 112.027 14.8417C112.027 14.9317 111.982 15.0517 111.892 15.2017C111.832 15.3517 111.757 15.4267 111.667 15.4267C111.547 15.4267 111.397 15.3667 111.217 15.2467C111.067 15.0967 110.932 14.8867 110.812 14.6167C110.512 13.8667 110.182 13.2367 109.822 12.7267C109.462 12.2167 108.892 11.9617 108.112 11.9617H103.747C103.567 11.9617 103.327 12.0217 103.027 12.1417C102.757 12.2617 102.622 12.4717 102.622 12.7717V18.7567C102.622 18.9067 102.667 19.1317 102.757 19.4317C102.877 19.7017 102.997 19.8367 103.117 19.8367H106.672C107.152 19.8367 107.497 19.6867 107.707 19.3867C107.947 19.0567 108.157 18.6217 108.337 18.0817C108.397 17.9317 108.487 17.7667 108.607 17.5867C108.727 17.4067 108.862 17.3167 109.012 17.3167C109.192 17.3167 109.327 17.3917 109.417 17.5417C109.537 17.6917 109.582 17.8417 109.552 17.9917C109.522 18.3517 109.492 18.7717 109.462 19.2517C109.432 19.7317 109.417 20.1367 109.417 20.4667C109.417 20.8567 109.432 21.2617 109.462 21.6817C109.522 22.1017 109.567 22.5217 109.597 22.9417C109.627 23.0617 109.597 23.2267 109.507 23.4367C109.417 23.6167 109.297 23.7067 109.147 23.7067C108.877 23.7067 108.682 23.5567 108.562 23.2567C108.472 22.9267 108.397 22.7167 108.337 22.6267C108.217 22.1467 108.007 21.8317 107.707 21.6817C107.407 21.5017 107.137 21.3967 106.897 21.3667C106.447 21.3067 105.922 21.2767 105.322 21.2767C104.752 21.2767 104.227 21.2767 103.747 21.2767C103.327 21.2767 103.027 21.3067 102.847 21.3667C102.697 21.4267 102.622 21.6667 102.622 22.0867V27.2167C102.622 28.0267 102.697 28.5367 102.847 28.7467C103.027 28.9567 103.447 29.0617 104.107 29.0617H108.607C109.537 29.0617 110.317 28.7917 110.947 28.2517C111.577 27.7117 112.042 27.1117 112.342 26.4517C112.402 26.3617 112.462 26.2267 112.522 26.0467C112.612 25.8667 112.762 25.7767 112.972 25.7767C113.182 25.7767 113.302 25.8667 113.332 26.0467C113.392 26.1967 113.422 26.3467 113.422 26.4967C113.362 27.0967 113.257 27.7567 113.107 28.4767C112.957 29.1667 112.807 29.7667 112.657 30.2767C112.627 30.3967 112.522 30.5167 112.342 30.6367C112.192 30.7567 112.042 30.8167 111.892 30.8167C110.782 30.8167 109.702 30.8017 108.652 30.7717C107.632 30.7417 106.642 30.7267 105.682 30.7267C104.752 30.6967 103.852 30.6667 102.982 30.6367C102.112 30.6067 101.287 30.5917 100.507 30.5917C99.9675 30.5917 99.4725 30.6217 99.0225 30.6817C98.5725 30.7117 98.1225 30.7417 97.6725 30.7717C97.2225 30.8317 96.6975 30.8617 96.0975 30.8617Z" fill="#888973"></path></svg>